<?xml version="1.0" standalone="no"?>
<!DOCTYPE svg PUBLIC "-//W3C//DTD SVG 20010904//EN"
 "http://www.w3.org/TR/2001/REC-SVG-20010904/DTD/svg10.dtd">
<svg version="1.0" xmlns="http://www.w3.org/2000/svg"
 width="512.000000pt" height="512.000000pt" viewBox="0 0 512.000000 512.000000"
 preserveAspectRatio="xMidYMid meet">
<metadata>
Created by potrace 1.11, written by Peter Selinger 2001-2013
</metadata>
<g transform="translate(0.000000,512.000000) scale(0.100000,-0.100000)"
fill="#000000" stroke="none">
<path d="M3065 4229 c-123 -41 -264 -111 -299 -148 l-29 -30 -65 61 c-82 76
-147 118 -185 118 -16 0 -27 -3 -25 -7 30 -59 58 -128 63 -156 7 -38 -1 -77
-16 -77 -5 0 -60 36 -122 79 -143 101 -277 170 -277 143 0 -5 15 -21 33 -35
46 -35 82 -105 73 -142 -11 -42 -67 -90 -133 -115 -32 -12 -157 -50 -278 -85
-470 -136 -638 -214 -785 -364 -76 -78 -116 -149 -160 -286 -61 -193 -90 -376
-90 -573 0 -68 -3 -122 -7 -120 -161 81 -236 102 -340 96 -180 -12 -314 -152
-388 -403 -105 -358 42 -632 405 -756 87 -30 106 -33 220 -33 105 -1 130 2
154 17 l27 18 76 -71 c144 -137 395 -278 640 -359 434 -144 1024 -177 1678
-95 536 68 751 154 1009 405 l91 89 80 0 c108 0 256 24 338 53 257 93 378 289
363 587 -16 339 -152 527 -397 547 -78 7 -194 -16 -263 -51 l-46 -23 0 99 c0
306 -76 602 -200 783 -50 72 -137 151 -209 188 -42 22 -141 56 -271 91 -583
157 -820 262 -820 361 0 43 31 69 159 135 54 28 106 59 116 70 18 19 17 20 -6
20 -13 0 -64 -14 -114 -31z m-940 -694 c211 -55 384 -272 443 -557 l16 -77 23
102 c15 67 40 136 74 206 44 90 64 118 133 187 116 116 235 165 363 150 173
-20 319 -140 418 -341 135 -275 135 -624 -1 -903 l-45 -93 37 -57 c84 -126
124 -294 105 -437 -6 -44 -15 -82 -19 -86 -26 -25 -286 -88 -467 -113 -409
-58 -978 -54 -1375 9 -106 17 -306 63 -331 76 -21 11 -39 102 -39 199 0 121
41 251 114 358 l35 53 -29 53 c-136 240 -158 586 -56 856 45 122 89 192 171
275 131 133 276 180 430 140z m1489 -2057 c-77 -132 -205 -256 -349 -340 -448
-259 -1087 -227 -1487 75 -42 31 -98 81 -123 109 -55 61 -109 137 -102 144 2
3 60 -7 128 -20 294 -59 585 -81 984 -73 159 3 335 11 390 17 145 15 390 57
465 79 80 23 104 25 94 9z"/>
<path d="M2005 3109 c-91 -52 -139 -187 -115 -320 15 -80 39 -127 86 -169 33
-29 42 -32 83 -27 38 4 52 12 84 47 51 59 70 129 65 239 -3 72 -9 95 -33 140
-17 30 -41 63 -55 73 -32 23 -89 32 -115 17z"/>
<path d="M3041 3103 c-105 -53 -145 -270 -75 -410 81 -162 230 -127 280 67 51
202 -73 410 -205 343z"/>
<path d="M2120 2392 c-23 -19 -23 -20 -7 -45 19 -29 101 -72 178 -93 72 -19
229 -30 229 -16 0 16 -131 109 -196 139 -79 36 -169 43 -204 15z"/>
<path d="M2862 2390 c-58 -21 -174 -94 -211 -134 l-24 -26 54 0 c168 1 369 79
369 142 0 40 -100 50 -188 18z"/>
</g>
</svg>
