<?xml version="1.0" encoding="utf-8"?>
<!-- Generator: Adobe Illustrator 23.1.0, SVG Export Plug-In . SVG Version: 6.00 Build 0)  -->
<svg version="1.1" xmlns="http://www.w3.org/2000/svg" xmlns:xlink="http://www.w3.org/1999/xlink" x="0px" y="0px"
	 viewBox="0 0 527 497.4" style="enable-background:new 0 0 527 497.4;" xml:space="preserve">
<style type="text/css">
	.st0{fill:#432918;}
	.st1{fill:#40BFED;}
	.st2{fill:#FFFFFF;}
	.st3{fill:none;stroke:#432918;stroke-width:4;stroke-miterlimit:10;}
	.st4{fill:#422A19;}
	.st5{fill:#FBEA24;}
	.st6{fill:#F2D023;}
	.st7{fill:#3A2416;}
	.st8{fill:#504F4F;}
</style>
<g id="Layer_2">
</g>
<g id="Layer_1">
	<path class="st0" d="M289.7,391c0,0,97.1,0,104.2-49.1c7.1-49.1-36.6-107.5,15.3-146.8s96-19.1,106.8,9.3
		c8.8,23.2,18.7,85.1-41.9,102.5s-46.9-67.6-4.9-61.1c0,0,20.2-1.1,24.5,16.9c0,0,9.1-43.2-13.1-51.9c-26.2-10.3-55.9-6.1-59.9,26.2
		s9.3,70.4,5.9,101.5s-26.2,79.5-116.2,90.2S289.7,391,289.7,391z"/>
	<path class="st0" d="M172.9,67c0,0,22.4,14.1-3.8,23.1s-74.2,15.6-86.2,47.8s-8.7,60-8.7,60s-41.4-30.1-55.6,24.9
		c-14.2,54.7,54.6,64.8,60.6,54.3c0,0,19.1,31.5,69.8,37.5c0,0-15.9,15.2-18.5,81.8c0,0-2.7,46.5,7.1,63.1c0,0-43.6,11.6-22.4,25
		c21.3,13.4,61.1-0.4,61.1-0.4s-17.1-29.3,5.6-33.6c0,0,29.8,6,52.7-0.5c0,0,22.9,8.3,9.3,34.2c0,0,30,13.4,58.4,4.6
		s-8.7-34.3-21.8-29.2c0,0,13.1-40.2,5.5-63.1c0,0,29-7.6,26.8-38.2s-46.4-43.6-46.4-43.6s45.3-3,73.1-35.3c0,0,61.6,7.5,58.4-48.7
		c-3.3-56.2-48.6-39.8-52.9-34.4c0,0,5.5-73.6-39.8-85.6S215.5,85.3,240,72.8c24.5-12.4,10.9-9.1,10.9-9.1s-27.3,7.9-30.5,15.7
		c0,0-15.8-17.3-20.7-13.5c0,0,9.3,15.4,3.3,18.3C202.9,84.2,177.3,63.7,172.9,67z"/>
	<g>
		<polygon class="st1" points="231.4,442.1 207.5,485.2 183.6,442.1 200,357.6 196.9,357.6 188.4,334.7 195.5,317.1 219.5,317.1 
			226.6,334.7 218.1,357.6 215,357.6 		"/>
		<path class="st2" d="M211.6,330.4c0,1.7-3.9,3.1-8.6,3.1c-4.8,0-8.6-1.4-8.6-3.1c0-0.7,0.6-1.3,1.7-1.8c-0.1-0.3-0.2-0.6-0.2-0.8
			c0-1.5,1.6-2.7,3.5-2.7c0.6,0,1.3,0.1,1.8,0.4c0.7-1.2,2.2-2,3.8-2c2.2,0,4,1.3,4.2,3.1c1,0.2,1.8,1,1.8,1.9
			c0,0.3-0.1,0.5-0.2,0.7C211.4,329.5,211.6,329.9,211.6,330.4z"/>
		<path class="st2" d="M222.8,414.2c0,1.7-3.9,3.1-8.6,3.1c-4.8,0-8.6-1.4-8.6-3.1c0-0.7,0.6-1.3,1.7-1.8c-0.1-0.3-0.2-0.6-0.2-0.8
			c0-1.5,1.6-2.7,3.5-2.7c0.6,0,1.3,0.1,1.8,0.4c0.7-1.2,2.2-2,3.8-2c2.2,0,4,1.3,4.2,3.1c1,0.2,1.8,1,1.8,1.9
			c0,0.3-0.1,0.5-0.2,0.7C222.5,413.4,222.8,413.8,222.8,414.2z"/>
		<path class="st2" d="M214.1,379.4c0,1.7-3.9,3.1-8.6,3.1c-4.8,0-8.6-1.4-8.6-3.1c0-0.7,0.6-1.3,1.7-1.8c-0.1-0.3-0.2-0.6-0.2-0.8
			c0-1.5,1.6-2.7,3.5-2.7c0.6,0,1.3,0.1,1.8,0.4c0.7-1.2,2.2-2,3.8-2c2.2,0,4,1.3,4.2,3.1c1,0.2,1.8,1,1.8,1.9
			c0,0.3-0.1,0.5-0.2,0.7C213.9,378.6,214.1,379,214.1,379.4z"/>
		<path class="st2" d="M228.9,442.9c0,1.7-3.9,3.1-8.6,3.1c-4.8,0-8.6-1.4-8.6-3.1c0-0.7,0.6-1.3,1.7-1.8c-0.1-0.3-0.2-0.6-0.2-0.8
			c0-1.5,1.6-2.7,3.5-2.7c0.6,0,1.3,0.1,1.8,0.4c0.7-1.2,2.2-2,3.8-2c2.2,0,4,1.3,4.2,3.1c1,0.2,1.8,1,1.8,1.9
			c0,0.3-0.1,0.5-0.2,0.7C228.6,442.1,228.9,442.5,228.9,442.9z"/>
		<path class="st2" d="M211.6,436.5c0,1.7-3.9,3.1-8.6,3.1c-4.8,0-8.6-1.4-8.6-3.1c0-0.7,0.6-1.3,1.7-1.8c-0.1-0.3-0.2-0.6-0.2-0.8
			c0-1.5,1.6-2.7,3.5-2.7c0.6,0,1.3,0.1,1.8,0.4c0.7-1.2,2.2-2,3.8-2c2.2,0,4,1.3,4.2,3.1c1,0.2,1.8,1,1.8,1.9
			c0,0.3-0.1,0.5-0.2,0.7C211.4,435.7,211.6,436.1,211.6,436.5z"/>
		<path class="st2" d="M209.2,468c0,1.7-3.9,3.1-8.6,3.1c-0.3,0-0.7,0-1,0l-4.4-8c0.5-0.3,1.2-0.4,1.9-0.4c0.6,0,1.3,0.1,1.8,0.4
			c0.7-1.2,2.2-2,3.8-2c2.2,0,4,1.3,4.2,3.1c1,0.2,1.8,1,1.8,1.9c0,0.3-0.1,0.5-0.2,0.7C209,467.2,209.2,467.6,209.2,468z"/>
		<path class="st2" d="M200.6,401.2c0,1.7-3.9,3.1-8.6,3.1c-0.4,0-0.7,0-1,0l1.9-9.8c0.4-0.1,0.8-0.1,1.2-0.1c2.2,0,4,1.3,4.2,3.1
			c1,0.2,1.8,1,1.8,1.9c0,0.3-0.1,0.5-0.2,0.7C200.4,400.4,200.6,400.8,200.6,401.2z"/>
		<path class="st2" d="M222.4,395.9c-0.7,0.1-1.4,0.1-2.1,0.1c-4.8,0-8.6-1.4-8.6-3.1c0-0.7,0.6-1.3,1.7-1.8
			c-0.1-0.3-0.2-0.6-0.2-0.8c0-1.5,1.6-2.7,3.5-2.7c0.6,0,1.3,0.1,1.8,0.4c0.4-0.7,1.2-1.3,2-1.6L222.4,395.9z"/>
		<path class="st2" d="M220.4,351.4c-1.6,0.6-3.8,0.9-6.2,0.9c-4.8,0-8.6-1.4-8.6-3.1c0-0.7,0.6-1.3,1.7-1.8
			c-0.1-0.3-0.2-0.6-0.2-0.8c0-1.5,1.6-2.7,3.5-2.7c0.6,0,1.3,0.1,1.8,0.4c0.7-1.2,2.2-2,3.8-2c2.2,0,4,1.3,4.2,3.1
			c0.8,0.2,1.4,0.6,1.7,1.3L220.4,351.4z"/>
	</g>
	<path class="st2" d="M283.7,171.1c0-30.4-17.1-55.1-38.3-55.1c-19.1,0-34.9,20.1-37.8,46.4c-2.9-26.3-19-46.4-38.3-46.4
		c-21.4,0-38.7,24.7-38.7,55.1c0,14.6,4,27.9,10.5,37.7c-6.7,8.6-10.5,18.5-10.5,29.2c0,31.9,34.3,57.7,76.5,57.7
		c42.3,0,76.5-25.8,76.5-57.7c0-10.6-3.8-20.6-10.4-29.1C279.8,199.1,283.7,185.8,283.7,171.1z M207.6,180.3l0.1-0.5
		c0,0.2,0,0.3,0.1,0.5H207.6z"/>
	<path class="st0" d="M210.6,207.3c0,0,14.4-14.4,25.5-12.1C247.2,197.6,230,209.2,210.6,207.3z"/>
	<path class="st3" d="M116,247.6c29.2,20.8,144.4,22.9,178.1,0"/>
	<path class="st0" d="M203.9,207.3c0,0-14.4-14.4-25.5-12.1C167.2,197.6,184.4,209.2,203.9,207.3z"/>
	<ellipse cx="169" cy="167.6" rx="9.2" ry="15.1"/>
	<ellipse cx="246" cy="167.6" rx="9.2" ry="15.1"/>
	<path class="st1" d="M306.4,154.1c0,0,0-5.6,0-8s0-3.7-3.1-3.8c-3.1-0.2-8.7-0.8-8.7-0.8c-37.5-6.2-56.3-1-56.3-1
		c-23.3,4.9-29.8,5.5-31.1,5.6h0c-1.3-0.1-7.8-0.7-31.1-5.6c0,0-18.8-5.2-56.3,1c0,0-5.6,0.7-8.7,0.8c-3.1,0.2-3.1,1.5-3.1,3.8
		s0,8,0,8s-0.2,1.7,3.5,3.3c3.7,1.6,4.8,18.2,5.4,20.4c0.6,2.1,2.9,18.6,13.8,23.3s13.6,5.8,23.9,5.4c10.3-0.4,25.2-3.7,34.7-17.3
		c9.4-13.5,8-28.7,17.9-29.7c9.9,1,8.5,16.2,17.9,29.7c9.5,13.6,24.5,16.9,34.7,17.3c10.3,0.4,13-0.8,23.9-5.4
		c10.9-4.7,13.2-21.2,13.8-23.3c0.6-2.1,1.7-18.8,5.4-20.4C306.6,155.8,306.4,154.1,306.4,154.1z M192.8,168.8
		c-4.3,12.8-3.7,18.3-15.3,27.2c-11.6,8.9-25.2,7.2-35.9,5.6c-10.7-1.5-19.4-14.6-20.4-29.1c-1-14.5,3.5-22.9,7.2-25.6
		c3.7-2.7,14.9-4.7,14.9-4.7s15.5-1.7,21.9,0s15.5,2.7,19.8,5.4C189.3,150.4,197.1,156,192.8,168.8z M293.2,172.5
		c-1,14.5-9.7,27.6-20.4,29.1c-10.7,1.6-24.3,3.3-35.9-5.6c-11.6-8.9-11.1-14.4-15.3-27.2c-4.3-12.8,3.5-18.4,7.8-21.2
		c4.3-2.7,13.4-3.7,19.8-5.4s21.9,0,21.9,0s11.3,1.9,14.9,4.7C289.8,149.6,294.2,158,293.2,172.5z"/>
	<path class="st4" d="M161.7,313.9c0,0-13.4-1.4-37.5,4.1c-26.2,6-63.6,1.7-87.2-6.2c-15.3-5.1-33.7,22.3-11.6,39.1
		c8.7,6.6,28.9-5.9,28.9-5.9s27.8,7.1,54.8,8.1C156.7,355,153.3,337.9,161.7,313.9z"/>
	<g>
		<path class="st5" d="M338.8,106.2l1.2,13.7c0,0-4.7,8.2-59.7,19.1c-53.3,10.5-74.1,11.2-74.1,11.2L193.4,8.9
			c0,0,20.7-1.6,43.4-2.7l-0.2,7.7c0,0,24.4,3.3,47,17.8c22.6,14.5,32.9,32.9,32.9,32.9s11.7,22.3,7.8,42.8L338.8,106.2z"/>
		<path class="st5" d="M151.1,13.6c22.5-2.7,43.2-4.7,43.2-4.7l12.8,141.3c0,0-20.6,2.9-75,1.5c-56.1-1.4-62.2-8.7-62.2-8.7
			l-1.2-13.7l14.5-1.2c-7.6-19.5-0.1-43.5-0.1-43.5s6.8-19.8,26.5-37.9s43.1-25.5,43.1-25.5L151.1,13.6z"/>
		<path class="st6" d="M153.1,20.5l13.9,99.8l-6.8,0.6l-44-80.1C116.2,40.7,131.6,27.8,153.1,20.5z"/>
		<path class="st6" d="M236.9,14.4l4.2,100.6l6.8-0.6l28.9-86.3C276.8,28.1,259.3,18,236.9,14.4z"/>
	</g>
	<g>
		<path class="st7" d="M52.2,349.5v-14.9H20.4v14.9c0,0-1.6,10.8,11.4,14.9v55.2h9v-55.2C53.9,360.4,52.2,349.5,52.2,349.5z
			 M44.8,355.7c-2.8,2.6-8.5,5.2-8.5,5.2s-5.7-2.6-8.5-5.2c-2.8-2.6-2.1-6.7-2.1-6.7v-8.6h21.3v8.6
			C46.9,349.1,47.6,353.1,44.8,355.7z"/>
		<path class="st8" d="M36.4,455.5c0,0-0.1,0.1-0.1,0.1v-0.2C36.3,455.5,36.4,455.5,36.4,455.5z"/>
		<path class="st8" d="M36.5,455.4c0,0-0.1,0.1-0.1,0.1c0,0-0.1-0.1-0.1-0.1c-5.6-6.3-5-33.2-5-33.2h10.2
			C41.5,422.2,42.1,449.1,36.5,455.4z"/>
		<path class="st8" d="M36.5,455.4v0.2c0,0-0.1-0.1-0.1-0.1C36.5,455.5,36.5,455.5,36.5,455.4z"/>
		<path class="st8" d="M36.4,457.4c0,0-0.1,0-0.1,0v0C36.3,457.4,36.3,457.4,36.4,457.4z"/>
		<path class="st8" d="M65.1,430.7l0.1,28.9c0,0,0.3,8.1-5.1,14.8c-5.4,6.7-13,13-23.6,17.4h-0.2c-10.5-4.3-18.1-10.7-23.6-17.4
			c-5.4-6.7-5.1-14.8-5.1-14.8l0.1-28.9c-2.3,0.5-2.7-1.6-2.6-3.4c0.1-1.7,3.5-1.6,3.5-1.6h20.9c0,0-0.4,12.3,1.8,22.4
			c1.9,8.5,4.3,9.3,5,9.3c0,0,0.1,0,0.1,0c0,0,0.1,0,0.1,0c0.7,0,3.2-0.8,5-9.3c2.2-10.1,1.8-22.4,1.8-22.4h20.9
			c0,0,3.4-0.1,3.5,1.6C67.8,429.1,67.4,431.2,65.1,430.7z"/>
		<path class="st8" d="M36.5,457.4L36.5,457.4c0,0-0.1,0-0.1,0C36.5,457.4,36.5,457.4,36.5,457.4z"/>
	</g>
</g>
</svg>
