<?xml version="1.0" encoding="utf-8"?>
<!-- Generator: Adobe Illustrator 24.3.0, SVG Export Plug-In . SVG Version: 6.00 Build 0)  -->
<svg version="1.1" id="layer_1" xmlns="http://www.w3.org/2000/svg" xmlns:xlink="http://www.w3.org/1999/xlink" x="0px" y="0px"
	 viewBox="0 0 518.8 518.8" style="enable-background:new 0 0 518.8 518.8;" xml:space="preserve">
<style type="text/css">
	.st0{fill:#422918;}
	.st1{fill:#25B4C6;}
	.st2{fill:#FFFFFF;}
	.st3{fill:none;stroke:#432918;stroke-width:4;stroke-miterlimit:10;}
	.st4{fill:#1D1D1B;}
	.st5{fill:none;stroke:#000000;stroke-miterlimit:10;}
</style>
<path class="st0" d="M275,288.7c0,0,39.3-1.8,55.2,2.9c0,0,37.6-9.4,50.5-9.4c12.9,0,17,11.1,7,14.7c-10,3.5-50.1,17-73.5,14
	c-23.5-2.9-55-5.2-55-5.2L275,288.7z"/>
<path class="st0" d="M222.8,288.7c0,0-39.3-1.8-55.2,2.9c0,0-37.6-9.4-50.5-9.4s-17,11.1-7,14.7s50.1,17,73.5,14s55-5.2,55-5.2
	L222.8,288.7z"/>
<path class="st0" d="M224.4,105c0,0,16.4,10.3-2.8,17c-19.2,6.6-54.4,11.4-63.2,35s-6.4,44-6.4,44s-30.3-22.1-40.8,18.3
	c-10.4,40.1,40,47.5,44.4,39.8c0,0,14,23.1,51.2,27.5c0,0-13.4,1.8-13.6,60c0,0-2,34.1,5.2,46.2c0,0-32,8.5-16.4,18.3
	c15.6,9.8,44.8-0.3,44.8-0.3s-12.6-21.5,4.1-24.7c0,0,21.9,4.4,38.7-0.4c0,0,16.8,6.1,6.8,25.1c0,0,22,9.8,42.8,3.4
	c20.8-6.4-6.4-25.2-16-21.4c0,0,4.5-28.5,4-46.2c-1.5-60.3-14.4-60-14.4-60s33.2-2.2,53.6-25.9c0,0,45.2,5.5,42.8-35.7
	s-35.6-29.2-38.8-25.2c0,0,4-54-29.2-62.8c-33.2-8.8-65.6-18.6-47.6-27.7s8-6.7,8-6.7s-20,5.8-22.4,11.5c0,0-11.6-12.7-15.2-9.9
	c0,0,6.8,11.3,2.4,13.4C246.4,117.7,227.6,102.6,224.4,105z"/>
<g>
	<polygon class="st1" points="267.3,380.1 249.8,411.7 232.3,380.1 244.3,318.1 242,318.1 235.8,301.4 241,288.4 258.6,288.4 
		263.8,301.4 257.5,318.1 255.3,318.1 	"/>
	<path class="st2" d="M252.8,298.2c0,1.2-2.8,2.2-6.3,2.2s-6.3-1-6.3-2.2c0-0.5,0.5-1,1.3-1.3c-0.1-0.2-0.1-0.4-0.1-0.6
		c0-1.1,1.2-2,2.6-2c0.5,0,0.9,0.1,1.3,0.3c0.5-0.8,1.6-1.4,2.8-1.4c1.6,0,2.9,1,3.1,2.3c0.8,0.2,1.3,0.7,1.3,1.4
		c0,0.2,0,0.4-0.1,0.5C252.7,297.6,252.8,297.9,252.8,298.2z"/>
	<path class="st2" d="M261,359.7c0,1.2-2.8,2.2-6.3,2.2s-6.3-1-6.3-2.2c0-0.5,0.5-1,1.3-1.3c-0.1-0.2-0.1-0.4-0.1-0.6
		c0-1.1,1.2-2,2.6-2c0.5,0,0.9,0.1,1.3,0.3c0.5-0.8,1.6-1.4,2.8-1.4c1.6,0,2.9,1,3.1,2.3c0.8,0.2,1.3,0.7,1.3,1.4
		c0,0.2,0,0.4-0.1,0.5C260.8,359.1,261,359.4,261,359.7z"/>
	<path class="st2" d="M254.7,334.1c0,1.2-2.8,2.2-6.3,2.2s-6.3-1-6.3-2.2c0-0.5,0.5-1,1.3-1.3c-0.1-0.2-0.1-0.4-0.1-0.6
		c0-1.1,1.2-2,2.6-2c0.5,0,0.9,0.1,1.3,0.3c0.5-0.8,1.6-1.4,2.8-1.4c1.6,0,2.9,1,3.1,2.3c0.8,0.2,1.3,0.7,1.3,1.4
		c0,0.2,0,0.4-0.1,0.5C254.5,333.5,254.7,333.8,254.7,334.1z"/>
	<path class="st2" d="M265.5,380.7c0,1.2-2.8,2.2-6.3,2.2c-3.5,0-6.3-1-6.3-2.2c0-0.5,0.5-1,1.3-1.3c-0.1-0.2-0.1-0.4-0.1-0.6
		c0-1.1,1.2-2,2.6-2c0.5,0,0.9,0.1,1.3,0.3c0.5-0.8,1.6-1.4,2.8-1.4c1.6,0,2.9,1,3.1,2.3c0.8,0.2,1.3,0.7,1.3,1.4
		c0,0.2,0,0.4-0.1,0.5C265.3,380.1,265.5,380.4,265.5,380.7z"/>
	<path class="st2" d="M252.8,376c0,1.2-2.8,2.2-6.3,2.2s-6.3-1-6.3-2.2c0-0.5,0.5-1,1.3-1.3c-0.1-0.2-0.1-0.4-0.1-0.6
		c0-1.1,1.2-2,2.6-2c0.5,0,0.9,0.1,1.3,0.3c0.5-0.8,1.6-1.4,2.8-1.4c1.6,0,2.9,1,3.1,2.3c0.8,0.2,1.3,0.7,1.3,1.4
		c0,0.2,0,0.4-0.1,0.5C252.7,375.4,252.8,375.7,252.8,376z"/>
	<path class="st2" d="M251.1,399.1c0,1.2-2.8,2.2-6.3,2.2c-0.2,0-0.5,0-0.7,0l-3.2-5.8c0.4-0.2,0.9-0.3,1.4-0.3
		c0.5,0,0.9,0.1,1.3,0.3c0.5-0.8,1.6-1.4,2.8-1.4c1.6,0,2.9,1,3.1,2.3c0.8,0.2,1.3,0.7,1.3,1.4c0,0.2,0,0.4-0.1,0.5
		C250.9,398.5,251.1,398.8,251.1,399.1z"/>
	<path class="st2" d="M244.7,350.1c0,1.2-2.8,2.2-6.3,2.2c-0.3,0-0.5,0-0.8,0l1.4-7.2c0.3-0.1,0.6-0.1,0.9-0.1c1.6,0,2.9,1,3.1,2.3
		c0.8,0.2,1.3,0.7,1.3,1.4c0,0.2,0,0.4-0.1,0.5C244.6,349.5,244.7,349.8,244.7,350.1z"/>
	<path class="st2" d="M260.7,346.2c-0.5,0-1,0.1-1.6,0.1c-3.5,0-6.3-1-6.3-2.2c0-0.5,0.5-1,1.3-1.3c-0.1-0.2-0.1-0.4-0.1-0.6
		c0-1.1,1.2-2,2.6-2c0.5,0,0.9,0.1,1.3,0.3c0.3-0.5,0.8-0.9,1.5-1.2L260.7,346.2z"/>
	<path class="st2" d="M259.2,313.6c-1.2,0.4-2.8,0.7-4.6,0.7c-3.5,0-6.3-1-6.3-2.2c0-0.5,0.5-1,1.3-1.3c-0.1-0.2-0.1-0.4-0.1-0.6
		c0-1.1,1.2-2,2.6-2c0.5,0,0.9,0.1,1.3,0.3c0.5-0.8,1.6-1.4,2.8-1.4c1.6,0,2.9,1,3.1,2.3c0.6,0.1,1,0.5,1.2,0.9L259.2,313.6z"/>
</g>
<path class="st2" d="M305.7,181.4c0-22.3-12.6-40.4-28.1-40.4c-14,0-25.6,14.8-27.7,34.1c-2.1-19.3-13.9-34.1-28.1-34.1
	c-15.7,0-28.4,18.1-28.4,40.4c0,10.7,2.9,20.5,7.7,27.7c-4.9,6.3-7.7,13.6-7.7,21.4c0,23.4,25.1,42.3,56.1,42.3
	c31,0,56.1-19,56.1-42.3c0-7.8-2.8-15.1-7.6-21.4C302.8,201.9,305.7,192.1,305.7,181.4z M249.9,188.1l0.1-0.4c0,0.1,0,0.3,0.1,0.4
	H249.9z"/>
<path class="st0" d="M252,207.9c0,0,10.5-10.5,18.7-8.8C278.9,200.8,266.3,209.3,252,207.9z"/>
<path class="st3" d="M182.7,237.4c21.4,15.3,105.9,16.8,130.6,0"/>
<path class="st0" d="M247.1,207.9c0,0-10.5-10.5-18.7-8.8S232.8,209.3,247.1,207.9z"/>
<ellipse class="st4" cx="221.6" cy="178.8" rx="6.8" ry="11"/>
<ellipse class="st4" cx="278" cy="178.8" rx="6.8" ry="11"/>
<path class="st1" d="M322.4,168.9c0,0,0-4.1,0-5.8c0-1.7,0-2.7-2.3-2.8c-2.3-0.1-6.4-0.6-6.4-0.6c-27.5-4.6-41.3-0.7-41.3-0.7
	c-17.1,3.6-21.9,4.1-22.8,4.1h0c-0.9-0.1-5.7-0.5-22.8-4.1c0,0-13.8-3.8-41.3,0.7c0,0-4.1,0.5-6.4,0.6c-2.3,0.1-2.3,1.1-2.3,2.8
	c0,1.7,0,5.8,0,5.8s-0.1,1.3,2.6,2.4c2.7,1.1,3.6,13.4,4,14.9c0.4,1.6,2.1,13.7,10.1,17.1c8,3.4,10,4.3,17.5,4
	c7.5-0.3,18.5-2.7,25.5-12.7c6.9-9.9,5.9-21,13.1-21.8c7.2,0.7,6.2,11.9,13.1,21.8c7,10,17.9,12.4,25.5,12.7c7.5,0.3,9.5-0.6,17.5-4
	c8-3.4,9.7-15.5,10.1-17.1c0.4-1.6,1.3-13.8,4-14.9C322.5,170.2,322.4,168.9,322.4,168.9z M239,179.7c-3.1,9.4-2.7,13.4-11.2,19.9
	c-8.5,6.5-18.5,5.3-26.3,4.1c-7.8-1.1-14.2-10.7-14.9-21.4c-0.7-10.7,2.6-16.8,5.3-18.8c2.7-2,11-3.4,11-3.4s11.4-1.3,16.1,0
	c4.7,1.3,11.4,2,14.5,4C236.4,166.2,242.1,170.3,239,179.7z M312.7,182.4c-0.7,10.7-7.1,20.2-14.9,21.4c-7.8,1.1-17.8,2.4-26.3-4.1
	c-8.5-6.5-8.1-10.5-11.2-19.9c-3.1-9.4,2.6-13.5,5.7-15.5c3.1-2,9.8-2.7,14.5-4c4.7-1.3,16.1,0,16.1,0s8.3,1.4,11,3.4
	C310.1,165.6,313.4,171.7,312.7,182.4z"/>
<polygon class="st5" points="115.5,295.9 79.4,365.8 151.7,365.8 "/>
<path class="st1" d="M79.4,365.8c0.4,17.7,16.4,31.9,36.1,31.9s35.7-14.2,36.1-31.9H79.4z"/>
<polygon class="st5" points="382.1,295.9 345.9,365.8 418.2,365.8 "/>
<path class="st1" d="M345.9,365.8c0.4,17.7,16.4,31.9,36.1,31.9s35.7-14.2,36.1-31.9H345.9z"/>
</svg>
