<?xml version="1.0" encoding="utf-8"?>
<!-- Generator: Adobe Illustrator 24.3.0, SVG Export Plug-In . SVG Version: 6.00 Build 0)  -->
<svg version="1.1" id="layer_1" xmlns="http://www.w3.org/2000/svg" xmlns:xlink="http://www.w3.org/1999/xlink" x="0px" y="0px"
	 viewBox="0 0 518.8 518.8" style="enable-background:new 0 0 518.8 518.8;" xml:space="preserve">
<style type="text/css">
	.st0{fill:#422918;}
	.st1{fill:#FFFFFF;}
	.st2{fill:none;stroke:#432918;stroke-miterlimit:10;}
	.st3{fill:#1D1D1B;}
	.st4{fill:#25B4C6;}
	.st5{fill-rule:evenodd;clip-rule:evenodd;fill:#27B5C6;}
	.st6{fill-rule:evenodd;clip-rule:evenodd;fill:#FFFFFF;stroke:#25221E;stroke-linecap:round;stroke-linejoin:round;}
	.st7{fill:none;stroke:#25221E;stroke-linecap:round;stroke-linejoin:round;}
	
		.st8{fill-rule:evenodd;clip-rule:evenodd;fill:#25221E;stroke:#25221E;stroke-width:2;stroke-linecap:round;stroke-linejoin:round;}
	.st9{fill:none;stroke:#25221E;stroke-width:2;stroke-linecap:round;stroke-linejoin:round;}
	
		.st10{fill-rule:evenodd;clip-rule:evenodd;fill:#FFFFFF;stroke:#25221E;stroke-width:2;stroke-linecap:round;stroke-linejoin:round;}
	.st11{fill-rule:evenodd;clip-rule:evenodd;fill:#FFFFFF;}
	.st12{fill-rule:evenodd;clip-rule:evenodd;}
	.st13{fill-rule:evenodd;clip-rule:evenodd;fill:#838181;}
	.st14{fill:#FF2A2A;stroke:#25221E;stroke-width:2;stroke-linecap:round;stroke-linejoin:round;}
	.st15{fill:none;stroke:#000000;stroke-width:2;stroke-linecap:round;stroke-linejoin:round;}
</style>
<path class="st0" d="M298.9,289.2c0,0,30.5-3.2,31.1-18.8c0.6-15.6-15-32.5,0-46.6c15-14,29.5-9.2,33.8-0.6c3.5,7,8.7,26.1-9.8,33.5
	c-18.4,7.5-16.9-19.7-3.5-19c0,0,6.3-1,8.3,4.5c0,0,1.4-13.8-5.8-15.9c-8.6-2.4-17.8-0.1-17.9,10.2c-0.2,10.3,5.2,21.8,5.2,31.7
	c0,9.9-5.6,25.8-33.5,32.1C278.8,306.7,298.9,289.2,298.9,289.2z"/>
<path class="st0" d="M307.7,287.2c0,0-7.4-17.7-33.8-19c-26.4-1.3-33.8,19-33.8,19H307.7z"/>
<g>
	<path class="st0" d="M283.9,205c0,0-6,3.7,1,6.2c7,2.4,19.8,4.2,22.9,12.7c3.2,8.6,2.3,16,2.3,16s11-8,14.8,6.6
		c3.8,14.6-14.5,17.2-16.1,14.5c0,0-5.1,8.4-18.6,10H259c0,0-12.1-0.8-19.5-9.4c0,0-16.4,2-15.5-13c0.9-15,12.9-10.6,14.1-9.1
		c0,0-1.5-19.6,10.6-22.8c12.1-3.2,23.8-6.7,17.3-10.1c-6.5-3.3-2.9-2.4-2.9-2.4s7.3,2.1,8.1,4.2c0,0,4.2-4.6,5.5-3.6
		c0,0-2.5,4.1-0.9,4.9C275.9,209.6,282.7,204.1,283.9,205z"/>
	<path class="st1" d="M257.2,242.8c-1.8,2.3-2.8,4.9-2.8,7.8c0,8.5,9.1,15.4,20.4,15.4c11.2,0,20.4-6.9,20.4-15.4
		c0-2.8-1-5.5-2.8-7.8c1.7-2.6,2.8-6.2,2.8-10c0-8.1-4.6-14.7-10.3-14.7c-5.1,0-9.4,5.4-10.2,12.4c-0.8-7-5-12.4-10.1-12.4
		c-5.6,0-10.2,6.6-10.2,14.7C254.4,236.6,255.4,240.2,257.2,242.8z M274.6,235.2c0,0,0-0.1,0-0.1L274.6,235.2L274.6,235.2z"/>
	<path class="st0" d="M273.9,242.4c0,0-3.8-3.8-6.8-3.2C264.1,239.8,268.7,242.9,273.9,242.4z"/>
	<path class="st2" d="M299,253.1c-7.8,5.6-38.5,6.1-47.4,0"/>
	<path class="st0" d="M275.6,242.4c0,0,3.8-3.8,6.8-3.2C285.4,239.8,280.8,242.9,275.6,242.4z"/>
	<ellipse class="st3" cx="284.9" cy="231.8" rx="2.5" ry="4"/>
	<ellipse class="st3" cx="264.4" cy="231.8" rx="2.5" ry="4"/>
	<path class="st4" d="M249.3,229.1c1,0.4,1.3,4.9,1.4,5.4c0.2,0.6,0.8,5,3.7,6.2c2.9,1.2,3.6,1.5,6.4,1.4c2.7-0.1,6.7-1,9.2-4.6
		c2.5-3.6,2.1-7.6,4.8-7.9c2.6,0.3,2.3,4.3,4.8,7.9c2.5,3.6,6.5,4.5,9.2,4.6c2.7,0.1,3.5-0.2,6.4-1.4c2.9-1.2,3.5-5.6,3.7-6.2
		c0.2-0.6,0.5-5,1.4-5.4c1-0.4,0.9-0.9,0.9-0.9s0-1.5,0-2.1c0-0.6,0-1-0.8-1c-0.8,0-2.3-0.2-2.3-0.2c-10-1.7-15-0.3-15-0.3
		c-6.2,1.3-7.9,1.5-8.3,1.5h0c-0.3,0-2.1-0.2-8.3-1.5c0,0-5-1.4-15,0.3c0,0-1.5,0.2-2.3,0.2c-0.8,0-0.8,0.4-0.8,1c0,0.6,0,2.1,0,2.1
		S248.3,228.7,249.3,229.1z M280.7,226.5c1.1-0.7,3.6-1,5.3-1.4c1.7-0.5,5.8,0,5.8,0s3,0.5,4,1.2c1,0.7,2.2,2.9,1.9,6.8
		c-0.3,3.9-2.6,7.3-5.4,7.8c-2.8,0.4-6.5,0.9-9.6-1.5c-3.1-2.4-2.9-3.8-4.1-7.2C277.5,228.7,279.5,227.2,280.7,226.5z M253.8,226.3
		c1-0.7,4-1.2,4-1.2s4.1-0.5,5.8,0c1.7,0.5,4.1,0.7,5.3,1.4c1.1,0.7,3.2,2.2,2.1,5.6c-1.1,3.4-1,4.9-4.1,7.2
		c-3.1,2.4-6.7,1.9-9.6,1.5c-2.8-0.4-5.2-3.9-5.4-7.8C251.6,229.2,252.8,227,253.8,226.3z"/>
</g>
<g transform="translate(0 -308.27)">
	<path class="st5" d="M69.6,669.4c-14.8,2.7-63.3,6.7-64.6-14.8v-6.7c-1.3-17.5,4-18.9,17.5-25.6c4-2.7,8.1-4,12.1-6.7
		c9.4-4,14.8-12.1,26.9-17.5c12.1-5.4,26.9-4,40.4-5.4c21.5-2.7,43.1-4,64.6-8.1c14.8-8.1,31-16.2,45.8-25.6
		c9.4-5.4,22.9-14.8,33.7-14.8c2.7-1.3,2.7,0,4,5.4c-1.3,1.3-4,2.7-6.7,4c-6.7,4-13.5,9.4-20.2,13.5c-12.1,6.7-24.2,13.5-33.7,20.2
		h1.3c44.4,0,95.6-1.3,138.7-1.3c9.4-1.3,17.5-1.3,25.6-4c9.4-1.3,18.9-4,26.9-9.4c13.5-8.1,33.7-1.3,48.5-1.3
		c29.6,6.7,55.2,12.1,76.8,35c8.1,9.4,9.4,9.4,8.1,22.9v14.8c0,4-1.3,6.7-1.3,9.4c-2.7,8.1-5.4,6.7-14.8,8.1
		c-16.2,4-32.3,5.4-49.8,6.7h-1.3v-16.2c0-25.6-20.2-47.1-45.8-47.1c-25.6,0-45.8,21.5-45.8,48.5c0,5.4-1.3,10.8,0,16.2
		c-62,1.3-123.9,2.7-185.9,5.4h-9.4c-2.7,0-4-1.3-4-1.3c1.3-6.7,0-13.5,0-21.5c0-40.4-44.4-56.6-71.4-35l-4,4c0,1.3-1.3,1.3-1.3,2.7
		c-6.7,8.1-10.8,17.5-10.8,29.6v17.5L69.6,669.4L69.6,669.4z"/>
	<path class="st6" d="M169.3,583.2c14.8-8.1,29.6-16.2,43.1-24.2c8.1-4,18.9-12.1,28.3-14.8l2.7,2.7l-60.6,39.1L169.3,583.2z"/>
	<path class="st7" d="M190.8,587.3c41.8,0,88.9-1.3,130.6-1.3c33.7,14.8-17.5,55.2-48.5,86.2c-35,0-68.7,1.3-102.4,2.7l0,0
		c1.3-9.4,4-17.5,4-28.3v-24.2c0-9.4-1.3-16.2,4-22.9c1.3-2.7,4-5.4,6.7-6.7C186.8,590,189.5,588.6,190.8,587.3L190.8,587.3z"/>
	<path class="st8" d="M316.1,600.7c9.4-1.3,12.1,2.7,8.1,5.4c-2.7,4-4,4-13.5,4c-8.1,0-12.1,0-12.1-2.7
		C298.6,603.4,308,602.1,316.1,600.7L316.1,600.7z"/>
	<path class="st9" d="M495.2,595.3c4,2.7,8.1,6.7,12.1,10.8c8.1,9.4,9.4,9.4,8.1,22.9v14.8c0,4-1.3,6.7-1.3,9.4
		c-2.7,8.1-5.4,6.7-14.8,8.1c-16.2,4-32.3,5.4-49.8,6.7h-1.3v-16.2c0-18.9-12.1-36.4-28.3-43.1C438.6,606.1,476.3,598,495.2,595.3
		L495.2,595.3z"/>
	<path class="st8" d="M515.4,645.2l-53.9,4l53.9-1.3V645.2z"/>
	<path class="st8" d="M355.1,581.9c9.4-1.3,18.9-4,26.9-9.4c12.1-8.1,32.3-1.3,47.1-1.3C410.3,579.2,382.1,581.9,355.1,581.9
		L355.1,581.9z"/>
	<path class="st8" d="M228.5,572.5c1.3,4,1.3,8.1,0,12.1c-1.3,1.3-10.8,1.3-13.5,0c0,0-1.3,1.3-2.7,1.3c-2.7,0-5.4-1.3-5.4-2.7
		c0-2.7,1.3-4,5.4-5.4C213.7,573.8,224.5,569.8,228.5,572.5L228.5,572.5z"/>
	<path class="st9" d="M216.4,569.8l2.7,2.7c-4,1.3-6.7,4-6.7,5.4c-4,1.3-5.4,2.7-5.4,5.4c0,1.3,2.7,2.7,5.4,2.7
		c1.3,0,2.7-1.3,2.7-1.3c1.3,0,6.7,1.3,10.8,1.3v1.3h-36.4C197.5,581.9,207,575.1,216.4,569.8L216.4,569.8z"/>
	<path class="st7" d="M34.6,615.5c9.4-4,14.8-12.1,26.9-17.5c12.1-5.4,26.9-4,40.4-5.4c21.5-2.7,43.1-4,64.6-8.1
		c14.8-8.1,31-16.2,45.8-25.6c9.4-5.4,22.9-14.8,33.7-14.8c2.7-1.3,2.7,0,4,5.4c-1.3,1.3-4,2.7-6.7,4c-6.7,4-13.5,9.4-20.2,13.5
		c-12.1,6.7-24.2,13.5-33.7,20.2h1.3c-1.3,1.3-4,2.7-5.4,5.4c-2.7,1.3-5.4,4-6.7,6.7c-5.4,6.7-4,13.5-4,22.9v24.2
		c0,10.8-2.7,18.9-4,28.3h-9.4c-2.7,0-4-1.3-4-1.3v-22.9c0-24.2-20.2-43.1-43.1-43.1h-4c-9.4,1.3-18.9,5.4-25.6,12.1h-1.3v1.3h-1.3
		c0,0,0,1.3-1.3,1.3v1.3C62.9,622.3,48.1,619.6,34.6,615.5"/>
	<path class="st10" d="M5,641.1c0-4,1.3-6.7,2.7-9.4h22.9c2.7,0,6.7-1.3,4,2.7c0,2.7-2.7,4-5.4,5.4c-1.3,1.3-4,1.3-5.4,1.3L5,641.1
		L5,641.1z"/>
	<path class="st10" d="M61.5,619.6H79c1.3,0,1.3,1.3,1.3,1.3l-1.3,2.7c0,0-1.3,1.3-2.7,1.3H58.8v-4
		C60.2,620.9,61.5,619.6,61.5,619.6L61.5,619.6z"/>
	<path class="st11" d="M26.5,619.6l8.1-4c9.4-4,14.8-12.1,26.9-17.5c-1.3,5.4-5.4,12.1-12.1,16.2C40,620.9,30.5,623.6,26.5,619.6z"
		/>
	<path class="st12" d="M35.9,672.1c12.1,2.7,24.2,6.7,36.4,8.1c-1.3-2.7-2.7-6.7-2.7-9.4v-1.3C62.9,670.8,49.4,672.1,35.9,672.1
		L35.9,672.1z"/>
	<path class="st12" d="M114,616.9c18.9,0,33.7,16.2,33.7,35s-14.8,33.7-33.7,33.7s-35-14.8-35-33.7S95.2,616.9,114,616.9L114,616.9z
		 M114,608.8c22.9,0,41.8,18.9,41.8,43.1c0,22.9-18.9,41.7-41.8,41.7c-24.2,0-43.1-18.9-43.1-41.7C70.9,627.7,89.8,608.8,114,608.8z
		"/>
	<path class="st12" d="M114,619.6c17.5,0,31,13.5,31,32.3c0,17.5-13.5,32.3-31,32.3c-18.9,0-32.3-14.8-32.3-32.3
		C81.7,633,95.2,619.6,114,619.6z M91.1,637.1c12.1,5.4,17.5,2.7,16.2-12.1C100.6,627.7,93.8,631.7,91.1,637.1z M118.1,625
		c0,14.8,5.4,17.5,17.5,12.1C132.9,631.7,126.2,626.3,118.1,625z M139.6,647.9c-12.1,4-16.2,9.4-6.7,21.5c4-5.4,6.7-10.8,6.7-17.5
		V647.9z M124.8,676.1c-8.1-10.8-14.8-10.8-21.5,0c2.7,1.3,6.7,1.3,10.8,1.3C116.7,677.5,120.8,677.5,124.8,676.1z M93.8,669.4
		c9.4-12.1,5.4-17.5-6.7-21.5v4C87.1,658.6,89.8,664,93.8,669.4z M108.7,625l1.3,12.1c0,6.7,6.7,6.7,6.7,0V625H108.7L108.7,625z
		 M136.9,639.8l-12.1,4c-5.4,2.7-2.7,8.1,2.7,6.7l12.1-4C139.6,643.8,138.3,641.1,136.9,639.8z M131.6,670.7
		c-2.7-4-5.4-6.7-6.7-10.8c-4-5.4-9.4-1.3-6.7,4c2.7,4,5.4,6.7,8.1,10.8C127.5,673.4,130.2,672.1,131.6,670.7L131.6,670.7z
		 M100.6,674.8c2.7-4,5.4-6.7,8.1-10.8c2.7-5.4-2.7-9.4-5.4-4c-2.7,4-5.4,6.7-8.1,10.8C96.5,672.1,99.2,673.4,100.6,674.8z
		 M87.1,646.5l12.1,4c6.7,1.3,8.1-4,2.7-6.7l-12.1-4C88.5,641.1,88.5,643.8,87.1,646.5z"/>
	<path class="st13" d="M114,620.9c16.2,0,29.6,13.5,29.6,31c0,16.2-13.5,29.6-29.6,29.6h-5.4h2.7c17.5,0,31-13.5,31-29.6
		c0-17.5-13.5-31-31-31h-2.7H114L114,620.9z"/>
	<path class="st12" d="M402.3,616.9c18.9,0,33.7,16.2,33.7,35s-14.8,33.7-33.7,33.7s-35-14.8-35-33.7S383.4,616.9,402.3,616.9z
		 M402.3,608.8c22.9,0,41.8,18.9,41.8,43.1c0,22.9-18.9,41.7-41.8,41.7c-24.2,0-43.1-18.9-43.1-41.7
		C359.2,627.7,378,608.8,402.3,608.8L402.3,608.8z"/>
	<path class="st12" d="M402.3,619.6c17.5,0,32.3,13.5,32.3,32.3c0,17.5-14.8,32.3-32.3,32.3s-32.3-14.8-32.3-32.3
		C369.9,633,384.8,619.6,402.3,619.6L402.3,619.6z M379.4,637.1c12.1,5.4,17.5,2.7,16.2-12.1C388.8,627.7,383.4,631.7,379.4,637.1z
		 M407.7,625c-1.3,14.8,4,17.5,17.5,12.1C421.1,631.7,414.4,626.3,407.7,625z M427.9,647.9c-12.1,4-14.8,9.4-6.7,21.5
		c5.4-5.4,6.7-10.8,6.7-17.5V647.9z M413,676.1c-8.1-10.8-14.8-10.8-21.5,0c2.7,1.3,6.7,1.3,10.8,1.3S409,677.5,413,676.1z
		 M382.1,669.4c9.4-12.1,6.7-17.5-6.7-21.5v4C375.3,658.6,378,664,382.1,669.4z M398.2,625v12.1c0,6.7,6.7,6.7,6.7,0V625H398.2z
		 M425.2,639.8l-12.1,4c-5.4,2.7-2.7,8.1,2.7,6.7l12.1-4C427.9,643.8,426.5,641.1,425.2,639.8L425.2,639.8z M421.1,670.7
		c-2.7-4-5.4-6.7-8.1-10.8c-4-5.4-9.4-1.3-5.4,4c1.3,4,4,6.7,6.7,10.8C417.1,673.4,418.4,672.1,421.1,670.7L421.1,670.7z
		 M390.1,674.8c1.3-4,4-6.7,6.7-10.8c2.7-5.4-1.3-9.4-5.4-4c-2.7,4-5.4,6.7-8.1,10.8C384.8,672.1,387.5,673.4,390.1,674.8
		L390.1,674.8z M375.3,646.5l12.1,4c6.7,1.3,8.1-4,2.7-6.7l-12.1-4C376.7,641.1,376.7,643.8,375.3,646.5z"/>
	<path class="st13" d="M402.3,620.9c16.2,0,29.6,13.5,29.6,31c0,16.2-13.5,29.6-29.6,29.6h-5.4h4c16.2,0,29.6-13.5,29.6-29.6
		c0-17.5-13.5-31-29.6-31h-4H402.3z"/>
	<path class="st14" d="M464.2,600.7c6.7,13.5,25.6,12.1,48.5,12.1c-1.3-1.3-2.7-4-5.4-6.7c-4-4-8.1-8.1-12.1-10.8
		C487.1,596.7,476.3,598,464.2,600.7L464.2,600.7z"/>
	<path class="st10" d="M467.2,600.7c8.1,4,21.5,4,37.7,2.7c-4-2.7-6.7-5.4-10.8-8.1C487.4,596.7,477.9,598,467.2,600.7L467.2,600.7z
		"/>
	<path class="st15" d="M69.6,669.4c-14.8,2.7-63.3,6.7-64.6-14.8v-6.7c-1.3-17.5,4-18.9,17.5-25.6c4-2.7,8.1-4,12.1-6.7
		c9.4-4,14.8-12.1,26.9-17.5c12.1-5.4,26.9-4,40.4-5.4c21.5-2.7,43.1-4,64.6-8.1c14.8-8.1,31-16.2,45.8-25.6
		c9.4-5.4,22.9-14.8,33.7-14.8c2.7-1.3,2.7,0,4,5.4c-1.3,1.3-4,2.7-6.7,4c-6.7,4-13.5,9.4-20.2,13.5c-12.1,6.7-24.2,13.5-33.7,20.2
		h1.3c44.4,0,95.6-1.3,138.7-1.3c9.4-1.3,17.5-1.3,25.6-4c9.4-1.3,18.9-4,26.9-9.4c13.5-8.1,33.7-1.3,48.5-1.3
		c29.6,6.7,55.2,12.1,76.8,35c8.1,9.4,9.4,9.4,8.1,22.9v14.8c0,4-1.3,6.7-1.3,9.4c-2.7,8.1-5.4,6.7-14.8,8.1
		c-16.2,4-32.3,5.4-49.8,6.7h-1.3v-16.2c0-25.6-20.2-47.1-45.8-47.1c-25.6,0-45.8,21.5-45.8,48.5c0,5.4-1.3,10.8,0,16.2
		c-62,1.3-123.9,2.7-185.9,5.4h-9.4c-2.7,0-4-1.3-4-1.3c1.3-6.7,0-13.5,0-21.5c0-40.4-44.4-56.6-71.4-35l-4,4c0,1.3-1.3,1.3-1.3,2.7
		c-6.7,8.1-10.8,17.5-10.8,29.6v17.5L69.6,669.4L69.6,669.4z"/>
</g>
<path class="st0" d="M289.1,271.9c0,0,15.7,4,15.5,13.9s-8.3,25.4-17.9,26.5c-9.6,1.1,6.1-26.4,6.1-26.4l-18.9-8.8
	C273.9,277.1,271.8,267.4,289.1,271.9z"/>
</svg>
