<?xml version="1.0" encoding="utf-8"?>
<!-- Generator: Adobe Illustrator 24.3.0, SVG Export Plug-In . SVG Version: 6.00 Build 0)  -->
<svg version="1.1" id="layer_1" xmlns="http://www.w3.org/2000/svg" xmlns:xlink="http://www.w3.org/1999/xlink" x="0px" y="0px"
	 viewBox="0 0 518.8 518.8" style="enable-background:new 0 0 518.8 518.8;" xml:space="preserve">
<style type="text/css">
	.st0{fill:#422918;}
	.st1{fill:#25B4C6;}
	.st2{fill:#FFFFFF;}
	.st3{fill:none;stroke:#432918;stroke-width:4;stroke-miterlimit:10;}
	.st4{fill:#1D1D1B;}
	.st5{fill:#6B6B6B;}
</style>
<path class="st0" d="M296.3,343.4c0,0,74.9,0,80.3-37.9c5.5-37.9-28.2-82.9,11.8-113.2s74-14.8,82.3,7.2c6.8,17.9,14.4,65.6-32.3,79
	s-36.2-52.2-3.8-47.1c0,0,15.6-0.8,18.9,13c0,0,7-33.3-10.1-40c-20.2-8-43.1-4.7-46.2,20.2c-3,24.9,7.1,54.3,4.5,78.3
	s-20.2,61.3-89.6,69.6S296.3,343.4,296.3,343.4z"/>
<path class="st0" d="M206.3,93.6c0,0,17.2,10.8-2.9,17.8s-57.2,12-66.4,36.8c-9.3,24.8-6.7,46.3-6.7,46.3s-31.9-23.2-42.9,19.2
	c-10.9,42.2,42.1,49.9,46.7,41.9c0,0,14.7,24.3,53.8,28.9c0,0-28.6,12.2-32.8,28.2c-4.2,16,7.1,33.6,18.5,34.9
	c0,0-2.1,35.8,5.5,48.6c0,0-33.6,8.9-17.2,19.3c16.4,10.3,47.1-0.3,47.1-0.3s-13.2-22.6,4.3-25.9c0,0,23,4.6,40.7-0.4
	c0,0,17.7,6.4,7.1,26.3c0,0,23.1,10.3,45,3.6c21.9-6.8-6.7-26.5-16.8-22.5c0,0,10.1-31,4.2-48.6c0,0,22.4-5.9,20.7-29.4
	c-1.7-23.6-35.8-33.6-35.8-33.6s34.9-2.3,56.4-27.2c0,0,47.5,5.8,45-37.6c-2.5-43.3-37.4-30.7-40.8-26.5c0,0,4.2-56.8-30.7-66
	s-69-19.5-50-29.1s8.4-7,8.4-7s-21,6.1-23.6,12.1c0,0-12.2-13.4-16-10.4c0,0,7.1,11.9,2.5,14.1C229.5,106.9,209.7,91,206.3,93.6z"/>
<g>
	<polygon class="st1" points="251.4,382.8 233,416 214.6,382.8 227.2,317.6 224.8,317.6 218.2,300 223.7,286.4 242.3,286.4 
		247.7,300 241.1,317.6 238.8,317.6 	"/>
	<path class="st2" d="M236.2,296.6c0,1.3-3,2.4-6.7,2.4c-3.7,0-6.6-1.1-6.6-2.4c0-0.5,0.5-1,1.3-1.4c-0.1-0.2-0.1-0.4-0.1-0.6
		c0-1.1,1.2-2.1,2.7-2.1c0.5,0,1,0.1,1.4,0.3c0.5-0.9,1.7-1.5,3-1.5c1.7,0,3.1,1,3.3,2.4c0.8,0.2,1.4,0.7,1.4,1.5
		c0,0.2,0,0.4-0.1,0.6C236,296,236.2,296.3,236.2,296.6z"/>
	<path class="st2" d="M244.8,361.3c0,1.3-3,2.4-6.7,2.4c-3.7,0-6.6-1.1-6.6-2.4c0-0.5,0.5-1,1.3-1.4c-0.1-0.2-0.1-0.4-0.1-0.6
		c0-1.1,1.2-2.1,2.7-2.1c0.5,0,1,0.1,1.4,0.3c0.5-0.9,1.7-1.5,3-1.5c1.7,0,3.1,1,3.3,2.4c0.8,0.2,1.4,0.7,1.4,1.5
		c0,0.2,0,0.4-0.1,0.6C244.6,360.6,244.8,360.9,244.8,361.3z"/>
	<path class="st2" d="M238.1,334.4c0,1.3-3,2.4-6.7,2.4c-3.7,0-6.6-1.1-6.6-2.4c0-0.5,0.5-1,1.3-1.4c-0.1-0.2-0.1-0.4-0.1-0.6
		c0-1.1,1.2-2.1,2.7-2.1c0.5,0,1,0.1,1.4,0.3c0.5-0.9,1.7-1.5,3-1.5c1.7,0,3.1,1,3.3,2.4c0.8,0.2,1.4,0.7,1.4,1.5
		c0,0.2,0,0.4-0.1,0.6C237.9,333.8,238.1,334.1,238.1,334.4z"/>
	<path class="st2" d="M249.5,383.4c0,1.3-3,2.4-6.7,2.4c-3.7,0-6.6-1.1-6.6-2.4c0-0.5,0.5-1,1.3-1.4c-0.1-0.2-0.1-0.4-0.1-0.6
		c0-1.1,1.2-2.1,2.7-2.1c0.5,0,1,0.1,1.4,0.3c0.5-0.9,1.7-1.5,3-1.5c1.7,0,3.1,1,3.3,2.4c0.8,0.2,1.4,0.7,1.4,1.5
		c0,0.2,0,0.4-0.1,0.6C249.3,382.7,249.5,383,249.5,383.4z"/>
	<path class="st2" d="M236.2,378.4c0,1.3-3,2.4-6.7,2.4c-3.7,0-6.6-1.1-6.6-2.4c0-0.5,0.5-1,1.3-1.4c-0.1-0.2-0.1-0.4-0.1-0.6
		c0-1.1,1.2-2.1,2.7-2.1c0.5,0,1,0.1,1.4,0.3c0.5-0.9,1.7-1.5,3-1.5c1.7,0,3.1,1,3.3,2.4c0.8,0.2,1.4,0.7,1.4,1.5
		c0,0.2,0,0.4-0.1,0.6C236,377.8,236.2,378.1,236.2,378.4z"/>
	<path class="st2" d="M234.3,402.7c0,1.3-3,2.4-6.7,2.4c-0.3,0-0.5,0-0.8,0l-3.4-6.1c0.4-0.2,0.9-0.3,1.4-0.3c0.5,0,1,0.1,1.4,0.3
		c0.5-0.9,1.7-1.5,3-1.5c1.7,0,3.1,1,3.3,2.4c0.8,0.2,1.4,0.7,1.4,1.5c0,0.2,0,0.4-0.1,0.6C234.1,402.1,234.3,402.4,234.3,402.7z"/>
	<path class="st2" d="M227.7,351.2c0,1.3-3,2.4-6.7,2.4c-0.3,0-0.5,0-0.8,0l1.5-7.6c0.3-0.1,0.6-0.1,0.9-0.1c1.7,0,3.1,1,3.3,2.4
		c0.8,0.2,1.4,0.7,1.4,1.5c0,0.2,0,0.4-0.1,0.6C227.5,350.6,227.7,350.9,227.7,351.2z"/>
	<path class="st2" d="M244.5,347.1c-0.5,0-1.1,0.1-1.6,0.1c-3.7,0-6.6-1.1-6.6-2.4c0-0.5,0.5-1,1.3-1.4c-0.1-0.2-0.1-0.4-0.1-0.6
		c0-1.1,1.2-2.1,2.7-2.1c0.5,0,1,0.1,1.4,0.3c0.3-0.6,0.9-1,1.6-1.3L244.5,347.1z"/>
	<path class="st2" d="M242.9,312.9c-1.2,0.4-2.9,0.7-4.8,0.7c-3.7,0-6.6-1.1-6.6-2.4c0-0.5,0.5-1,1.3-1.4c-0.1-0.2-0.1-0.4-0.1-0.6
		c0-1.1,1.2-2.1,2.7-2.1c0.5,0,1,0.1,1.4,0.3c0.5-0.9,1.7-1.5,3-1.5c1.7,0,3.1,1,3.3,2.4c0.6,0.1,1.1,0.5,1.3,1L242.9,312.9z"/>
</g>
<path class="st2" d="M291.8,173.9c0-23.5-13.2-42.5-29.5-42.5c-14.7,0-26.9,15.5-29.1,35.8c-2.3-20.3-14.6-35.8-29.5-35.8
	c-16.5,0-29.9,19-29.9,42.5c0,11.3,3.1,21.5,8.1,29.1c-5.1,6.6-8.1,14.3-8.1,22.5c0,24.6,26.4,44.5,59,44.5c32.6,0,59-19.9,59-44.5
	c0-8.2-2.9-15.9-8-22.4C288.7,195.4,291.8,185.2,291.8,173.9z M233.1,181l0.1-0.4c0,0.1,0,0.3,0.1,0.4H233.1z"/>
<path class="st0" d="M235.4,201.8c0,0,11.1-11.1,19.7-9.3C263.6,194.3,250.4,203.2,235.4,201.8z"/>
<path class="st3" d="M162.4,232.8c22.5,16.1,111.3,17.7,137.3,0"/>
<path class="st0" d="M230.2,201.8c0,0-11.1-11.1-19.7-9.3C202,194.3,215.2,203.2,230.2,201.8z"/>
<ellipse class="st4" cx="203.3" cy="171.2" rx="7.1" ry="11.6"/>
<ellipse class="st4" cx="262.7" cy="171.2" rx="7.1" ry="11.6"/>
<path class="st1" d="M309.3,160.7c0,0,0-4.3,0-6.1c0-1.8,0-2.8-2.4-3c-2.4-0.1-6.7-0.6-6.7-0.6c-28.9-4.8-43.4-0.7-43.4-0.7
	c-18,3.8-23,4.3-24,4.3h0c-1-0.1-6-0.6-24-4.3c0,0-14.5-4-43.4,0.7c0,0-4.3,0.5-6.7,0.6c-2.4,0.1-2.4,1.2-2.4,3c0,1.8,0,6.1,0,6.1
	s-0.1,1.3,2.7,2.5c2.8,1.2,3.7,14.1,4.2,15.7c0.4,1.6,2.2,14.4,10.6,18s10.5,4.5,18.4,4.2c7.9-0.3,19.4-2.8,26.8-13.3
	c7.3-10.4,6.2-22.1,13.8-22.9c7.6,0.8,6.5,12.5,13.8,22.9c7.3,10.5,18.9,13,26.8,13.3c7.9,0.3,10-0.6,18.4-4.2
	c8.4-3.6,10.2-16.3,10.6-18c0.4-1.6,1.3-14.5,4.2-15.7C309.4,162.1,309.3,160.7,309.3,160.7z M221.7,172.1
	c-3.3,9.9-2.9,14.1-11.8,20.9c-8.9,6.8-19.4,5.5-27.7,4.3c-8.2-1.2-15-11.2-15.7-22.4c-0.7-11.2,2.7-17.6,5.5-19.7
	c2.8-2.1,11.5-3.6,11.5-3.6s12-1.3,16.9,0s12,2.1,15.3,4.2C219,157.9,224.9,162.2,221.7,172.1z M299.1,174.9
	c-0.7,11.2-7.5,21.3-15.7,22.4c-8.2,1.2-18.7,2.5-27.7-4.3c-8.9-6.9-8.5-11.1-11.8-20.9c-3.3-9.9,2.7-14.2,6-16.3
	c3.3-2.1,10.3-2.8,15.3-4.2s16.9,0,16.9,0s8.7,1.5,11.5,3.6C296.4,157.3,299.9,163.7,299.1,174.9z"/>
<g>
	<path class="st5" d="M224.8,335.1v72.5c0,10-8.1,18.1-18.1,18.1h-133c-10,0-18.1-8.1-18.1-18.1v-72.5c0-10,8.1-18.1,18.1-18.1h9.1
		v-27.2c0-31.7,25.8-57.4,57.4-57.4s57.4,25.8,57.4,57.4V317h9.1C216.7,317,224.8,325.1,224.8,335.1z M167.4,289.8
		c0-15-12.2-27.2-27.2-27.2S113,274.8,113,289.8V317h54.4V289.8z"/>
</g>
</svg>
