<?xml version="1.0" encoding="utf-8"?>
<!-- Generator: Adobe Illustrator 24.3.0, SVG Export Plug-In . SVG Version: 6.00 Build 0)  -->
<svg version="1.1" id="Layer_1" xmlns="http://www.w3.org/2000/svg" xmlns:xlink="http://www.w3.org/1999/xlink" x="0px" y="0px"
	 viewBox="0 0 518.8 518.8" style="enable-background:new 0 0 518.8 518.8;" xml:space="preserve">
<style type="text/css">
	.st0{fill:#4C4C4C;}
	.st1{fill:#302F30;}
	.st2{fill:#422918;}
	.st3{fill:#FFFFFF;}
	.st4{fill:none;stroke:#432918;stroke-width:3;stroke-miterlimit:10;}
	.st5{fill:#1D1D1B;}
	.st6{fill:#3EBEED;}
</style>
<g id="laptop_zij">
	<g>
		<path class="st0" d="M40.9,227.4C40.9,227.4,40.8,227.5,40.9,227.4v3.4c0,1.3,1.1,2.4,2.4,2.4H194c1.3,0,2.4-1.1,2.4-2.4v-3.3
			c0,0,0,0,0-0.1L40.9,227.4L40.9,227.4z"/>
		<path class="st0" d="M11.7,74.6C11.7,74.6,11.6,74.6,11.7,74.6L10,74.9c-0.6,0.1-1,1.3-0.7,2.6l28.3,148c0.2,1.3,1,2.2,1.6,2.1
			l1.6-0.3l0,0L11.7,74.6z"/>
	</g>
</g>
<g id="stropdas">
	<g>
		<path class="st1" d="M372.8,334.4L261.6,287c-3.3-1.4-4.8-5.7-3.1-9.5l0,0c1.6-3.8,5.7-5.7,9-4.3l111.2,47.5
			c3.3,1.4,4.8,5.7,3.1,9.5l0,0C380.2,333.9,376.1,335.8,372.8,334.4z"/>
		<path class="st1" d="M293,299.7l-66.4,104.9c-1.7,2.7-3.9,3.8-7.1,1.8l-0.9-0.6c-3.2-2-3.2-4.4-1.6-7.1L280.5,292
			c1.7-2.7,5.6-3.3,8.8-1.2l0.9,0.6C293.4,293.2,294.7,297.1,293,299.7z"/>
		<path class="st1" d="M351.1,317.3l1.1,0.2c3.6,0.9,5.9,4.2,5.2,7.2l-33.1,119.7c-0.8,3-2.6,4.6-6.3,3.7l-1.1-0.2
			c-3.6-0.9-4.4-3.3-3.6-6.3L343,321C343.8,318,347.5,316.3,351.1,317.3z"/>
		<path class="st1" d="M368,323.8l79.9-133.7c1.9-3.1,6.4-3.8,9.9-1.6l0,0c3.5,2.2,4.8,6.5,2.8,9.6l-79.9,133.8
			c-1.9,3.1-6.4,3.8-9.9,1.6l0,0C367.3,331.2,366.1,326.9,368,323.8z"/>
	</g>
	<g>
		<path class="st1" d="M244.6,255.9H41.5c-6.1,0-11.1-5-11.1-11.1l0,0c0-6.1,5-11.1,11.1-11.1h203.2c6.1,0,11.1,5,11.1,11.1l0,0
			C255.7,251,250.7,255.9,244.6,255.9z"/>
		<path class="st1" d="M76.7,248.3L45.5,442.9c-0.5,3.1-2.1,5-5.8,4.4l-1.1-0.2c-3.7-0.6-4.7-2.8-4.3-5.9L62.1,246
			c0.5-3.1,3.9-5.2,7.6-4.6l1.1,0.2C74.5,242.2,77.2,245.2,76.7,248.3z"/>
		<path class="st1" d="M215.9,241.7l1.1-0.2c3.7-0.6,7.1,1.5,7.6,4.6l27.8,195.2c0.4,3.1-0.6,5.3-4.3,5.9l-1.1,0.2
			c-3.7,0.6-5.3-1.3-5.8-4.4L210,248.3C209.5,245.2,212.2,242.2,215.9,241.7z"/>
	</g>
	<g>
		<path class="st2" d="M385.2,221.6c0.8,1-0.5,11.1,26.6,31.9c12.6,9.7,13.2,4.7,17.8-1.5c5.2-7,22.1-37.5,22.1-49.7
			c-0.1-12.2-16.5-12-16.5-12s-3.5,18.6-15.7,39c0,0-4.8-15.1-14.5-26C395.3,192.4,385.2,221.6,385.2,221.6z"/>
		<path class="st2" d="M348.3,176.5c-0.5-1.1-10-4.8-15.7-38.4c-2.6-15.7,2.1-13.9,9.7-15c8.6-1.3,43.5-1.9,54.2,3.9
			c10.7,5.8,2.8,20.2,2.8,20.2s-18.1-5.6-41.8-4.4c0,0,11.1,11.3,16.1,25C378.9,181.4,348.3,176.5,348.3,176.5z"/>
		<path class="st2" d="M348.3,168.6c0,0-40,21.5-54,37.4c-18,20.5-22.2,31-22,47.9c0.1,16.3,30,38.8,47,43.5s41.8-19,47.1-32.9
			c5.4-13.9,24.5-33.9,33.7-44.3C416.6,201.4,415.7,149,348.3,168.6z"/>
		<g>
			<path class="st2" d="M482.3,87.8c0,0,1.6,13.9-10.8,6.1s-31-25.4-48.2-19.7s-27.6,16.3-27.6,16.3s-1.3-27-28.7-14.7
				c-27.3,12.3-8.7,43.9-2.4,43c0,0-6.7,18.3,7.6,41.2c0,0,24.4,36.4,36.3,46.3c11.2,9.3,18.7,19.8,41.3,20.5
				c0,0,17.3,27.9,39.4,7.9s0.3-33.2-3.3-33.2c0,0,32.2-22.1,22.1-44.8s-19.2-45.3-5.9-39.3c13.3,6,7.4,1.5,7.4,1.5
				s-12.3-8.6-16.6-7.4c0,0,1.9-12.3-1.3-13c0,0-3.3,8.9-6.5,7.4C485.1,105.9,485.1,88.5,482.3,87.8z"/>
			<path class="st3" d="M476,168c12.6-10.1,17.1-25.3,10.1-34c-6.3-7.9-19.9-7.7-31.7-0.2c9.9-9.9,12.9-23.2,6.5-31.2
				c-7.1-8.8-23-7.8-35.6,2.3c-6,4.8-10.2,10.9-12.1,16.8c-5.7,0.1-11.1,1.8-15.5,5.3c-13.1,10.6-12.5,33.2,1.5,50.7
				c14,17.4,36,23,49.1,12.5c4.4-3.5,7.2-8.4,8.6-13.9C463.2,175.6,470,172.9,476,168z M447,139.7l0.2-0.1
				C447.2,139.6,447.1,139.7,447,139.7L447,139.7z"/>
			<path class="st2" d="M436.9,149.8c0,0,10.7,1.2,13.4,6.5C453,161.7,442.5,158.5,436.9,149.8z"/>
			<path class="st4" d="M389,124.1c1.1,19,38.4,67.2,59,73.5"/>
			<path class="st2" d="M434.6,147c0,0,1.2-10.7-3.5-14.5C426.5,128.7,427.4,139.6,434.6,147z"/>
			<ellipse transform="matrix(0.7798 -0.626 0.626 0.7798 21.9607 301.4264)" class="st5" cx="439.5" cy="119.5" rx="8" ry="4.9"/>
			<ellipse transform="matrix(0.7798 -0.626 0.626 0.7798 7.6884 324.4057)" class="st5" cx="465" cy="151.3" rx="8" ry="4.9"/>
			<path class="st6" d="M490.6,171.7c0,0,2.3-1.9,3.3-2.6c1-0.8,1.5-1.2,0.6-2.6c-1-1.3-2.6-3.9-2.6-3.9
				c-9.8-17.5-18.2-23.5-18.2-23.5c-9.7-8-12.2-10.5-12.6-11l0,0c-0.4-0.6-2.3-3.4-8-14.7c0,0-4.1-9.5-19-22.9c0,0-2.1-2.1-3.2-3.3
				c-1.1-1.2-1.7-0.8-2.6,0c-1,0.8-3.3,2.6-3.3,2.6s-0.8,0.5-0.2,2.5c0.6,2-5.9,8-6.6,9c-0.7,0.9-6.7,7.4-5,13.4s2.1,7.5,5.7,11.6
				c3.6,4.1,9.9,9.2,18.6,8.6c8.7-0.6,14.5-6.2,18.2-2.4c2.8,4.4-3.9,8.9-6.3,17.2c-2.5,8.4,1.1,15.7,4.4,20c3.2,4.4,4.6,5.1,10.1,8
				s13.1-1.6,14.2-2c1.1-0.5,8.3-5.5,10.2-4.5C489.9,172.4,490.6,171.7,490.6,171.7z M446.9,129.7c-6.7,2.5-8.8,4.5-16.3,2.7
				s-11.3-8-14.2-12.9c-2.9-4.9-0.4-12.8,5.3-18c5.7-5.2,10.6-6.1,12.9-5.5s6.9,4.6,6.9,4.6s5.9,5.8,7.3,9s4,7.3,4.3,10
				C453.3,122.2,453.5,127.2,446.9,129.7z M478.6,172.4c-6.3,4.4-14.6,5.1-18.8,1.2c-4.2-3.9-9.4-8.9-9.6-16.7
				c-0.2-7.7,2.3-9.3,6.1-15.3c3.9-6,8.8-4.7,11.3-3.8s6,4.3,8.8,6.4s7.3,9,7.3,9s2.9,5.3,3,7.7C486.9,163.4,484.9,168,478.6,172.4z
				"/>
		</g>
		<path class="st2" d="M290.5,247c0,0-17.2-23.5-25-34.8c0,0,18.4-10.9,12-18.9s-35.2,5.9-35.8,11.8c0,0,19.1,43.7,31.2,51.1
			C285,263.7,290.5,247,290.5,247"/>
		<g>
			<polygon class="st6" points="317.6,199.8 301.2,223 329.5,224.6 369.2,194.9 370,196.5 383.9,195.2 391.3,187.1 385.3,174.7 
				374.3,175.4 364.7,185.5 365.4,187.1 			"/>
			<path class="st3" d="M380.4,182.1c-0.9,0.4-0.6,2.8,0.6,5.2s2.9,4.1,3.7,3.7c0.4-0.2,0.5-0.7,0.5-1.3c0.2,0,0.3,0,0.5-0.1
				c0.8-0.4,1-1.5,0.5-2.5c-0.2-0.3-0.4-0.6-0.6-0.8c0.4-0.6,0.5-1.6,0-2.5c-0.6-1.1-1.7-1.7-2.7-1.4c-0.4-0.5-0.9-0.7-1.4-0.4
				c-0.1,0.1-0.3,0.2-0.3,0.3C380.9,182,380.6,181.9,380.4,182.1z"/>
			<path class="st3" d="M334.2,197.3c-0.9,0.4-0.6,2.8,0.6,5.2c1.2,2.5,2.9,4.1,3.7,3.7c0.4-0.2,0.5-0.7,0.5-1.3
				c0.2,0,0.3,0,0.5-0.1c0.8-0.4,1-1.5,0.5-2.5c-0.2-0.3-0.4-0.6-0.6-0.8c0.4-0.6,0.5-1.6,0-2.5c-0.6-1.1-1.7-1.7-2.7-1.4
				c-0.4-0.5-0.9-0.7-1.4-0.4c-0.1,0.1-0.3,0.2-0.3,0.3C334.7,197.2,334.4,197.2,334.2,197.3z"/>
			<path class="st3" d="M354.4,193c-0.9,0.4-0.6,2.8,0.6,5.2s2.9,4.1,3.7,3.7c0.4-0.2,0.5-0.7,0.5-1.3c0.2,0,0.3,0,0.5-0.1
				c0.8-0.4,1-1.5,0.5-2.5c-0.2-0.3-0.4-0.6-0.6-0.8c0.4-0.6,0.5-1.6,0-2.5c-0.6-1.1-1.7-1.7-2.7-1.4c-0.4-0.5-0.9-0.7-1.4-0.4
				c-0.1,0.1-0.3,0.2-0.3,0.3C354.8,193,354.6,192.9,354.4,193z"/>
			<path class="st3" d="M317.8,201.3c-0.9,0.4-0.6,2.8,0.6,5.2s2.9,4.1,3.7,3.7c0.4-0.2,0.5-0.7,0.5-1.3c0.2,0,0.3,0,0.5-0.1
				c0.8-0.4,1-1.5,0.5-2.5c-0.2-0.3-0.4-0.6-0.6-0.8c0.4-0.6,0.5-1.6,0-2.5c-0.6-1.1-1.7-1.7-2.7-1.4c-0.4-0.5-0.9-0.7-1.4-0.4
				c-0.1,0.1-0.3,0.2-0.3,0.3C318.3,201.2,318,201.2,317.8,201.3z"/>
			<path class="st3" d="M325.4,208.6c-0.9,0.4-0.6,2.8,0.6,5.2s2.9,4.1,3.7,3.7c0.4-0.2,0.5-0.7,0.5-1.3c0.2,0,0.3,0,0.5-0.1
				c0.8-0.4,1-1.5,0.5-2.5c-0.2-0.3-0.4-0.6-0.6-0.8c0.4-0.6,0.5-1.6,0-2.5c-0.6-1.1-1.7-1.7-2.7-1.4c-0.4-0.5-0.9-0.7-1.4-0.4
				c-0.1,0.1-0.3,0.2-0.3,0.3C325.9,208.5,325.6,208.5,325.4,208.6z"/>
			<path class="st3" d="M309.7,217.8c-0.9,0.4-0.6,2.8,0.6,5.2c0.1,0.2,0.2,0.3,0.3,0.5l5.2,0.3c0-0.3-0.1-0.7-0.3-1.1
				c-0.2-0.3-0.4-0.6-0.6-0.8c0.4-0.6,0.5-1.6,0-2.5c-0.6-1.1-1.7-1.7-2.7-1.4c-0.4-0.5-0.9-0.7-1.4-0.4c-0.1,0.1-0.3,0.2-0.3,0.3
				C310.2,217.7,309.9,217.7,309.7,217.8z"/>
			<path class="st3" d="M346.5,205.5c-0.9,0.4-0.6,2.8,0.6,5.2c0.1,0.2,0.2,0.4,0.3,0.5l4.6-3.4c0-0.2-0.1-0.5-0.2-0.7
				c-0.6-1.1-1.7-1.7-2.7-1.4c-0.4-0.5-0.9-0.7-1.4-0.4c-0.1,0.1-0.3,0.2-0.3,0.3C347,205.4,346.7,205.4,346.5,205.5z"/>
			<path class="st3" d="M343.8,192.9c0.1,0.4,0.3,0.7,0.5,1.1c1.2,2.5,2.9,4.1,3.7,3.7c0.4-0.2,0.5-0.7,0.5-1.3c0.2,0,0.3,0,0.5-0.1
				c0.8-0.4,1-1.5,0.5-2.5c-0.2-0.3-0.4-0.6-0.6-0.8c0.3-0.4,0.4-0.9,0.3-1.5L343.8,192.9z"/>
			<path class="st3" d="M367.3,182.8c0.1,1,0.5,2.2,1.1,3.5c1.2,2.5,2.9,4.1,3.7,3.7c0.4-0.2,0.5-0.7,0.5-1.3c0.2,0,0.3,0,0.5-0.1
				c0.8-0.4,1-1.5,0.5-2.5c-0.2-0.3-0.4-0.6-0.6-0.8c0.4-0.6,0.5-1.6,0-2.5c-0.6-1.1-1.7-1.7-2.7-1.4c-0.3-0.4-0.7-0.6-1.1-0.5
				L367.3,182.8z"/>
		</g>
		<path class="st2" d="M254.9,214.4c0,0-6.7,0.9-18.8,2.3c0,0-0.5-21.4-9.4-19.6c-9,1.7-10.7,33.6-6.4,37.1c0,0,31.5,2.7,42.4-4.4
			c11-7.1,6.8-16,2.4-16.6"/>
		<path class="st2" d="M284.1,221.5c9.9,9,14.4,20.2,10,25s-14.5,0-24.4-8.9s-17.3-17.9-12.9-22.7
			C261.2,210.1,274.2,212.6,284.1,221.5z"/>
	</g>
</g>
</svg>
