<svg xmlns="http://www.w3.org/2000/svg" viewBox="0 0 603.11 401.89"><defs><style>.cls-1{fill:#432918;}.cls-2{fill:#422a19;}.cls-3{fill:#40bfed;}.cls-4{fill:#fff;}.cls-5{fill:#1d1d1b;}.cls-6{fill:#c6a51c;}.cls-7{fill:#e8cc1e;}.cls-8{fill:#d9b620;}.cls-9{fill:#7f4f25;}</style></defs><title>we-slipped</title><g id="monkey"><path class="cls-1" d="M452.8,373.13S519.72,430,553.33,400.26s37.71-95.47,96.41-92.21S727.1,351,717.85,377C710.31,398.12,681,446.53,629,423.13s7.25-74.07,32.37-45c0,0,14.55,11.06,7,26,0,0,31.54-24.41,21.36-43.44-12-22.43-35-36.91-56.6-17s-34.8,54-55.34,73.4-64.57,39.47-132.87-5.8S452.8,373.13,452.8,373.13Z" transform="translate(-116.99 -98.58)"/><path class="cls-2" d="M465.27,232.87c-7.79-22.9-56.27-16.59-90.73-62.11-24-31.66-42.48-15.21-10.2,35.44C389.71,246,423.84,259,423.84,259s18.28,3.83,23.79,1.05C453.45,257.11,467,238,465.27,232.87Z" transform="translate(-116.99 -98.58)"/><path class="cls-2" d="M427.84,235.28s-47.17,41-63.2,65.75c-20.73,32.06,3.08,32.32,3.08,32.32s-25.29-27.83-34-18.1-18.84,31-18.84,31-29.71-15.72-31.36-1.53,22.1,40.62,46.13,41.64c0,0,5.53-20.8,14.75-31.26,0,0,54.88,61.58,79.28,63.29s51.56-37.34,55-57.67,24-52.81,33.68-69.55C529.77,261.05,514.09,190.07,427.84,235.28Z" transform="translate(-116.99 -98.58)"/><path class="cls-2" d="M514.89,267.68s7.66,25.12,10,44-8.7,28.45-.23,39.79,33.76,31.38,16.24,33.16-34.14-15.05-41.36-22.88-7.59-39.64-12.11-42.29S474,305.72,474,305.72Z" transform="translate(-116.99 -98.58)"/><path class="cls-2" d="M363.54,322s-37-16.43-54.06-24.61c0,0,14.63-25.8,1.45-31s-38.28,31.31-35,38.94c0,0,53.22,39.43,72.85,40S363.54,322,363.54,322" transform="translate(-116.99 -98.58)"/><polygon class="cls-3" points="282.38 213.2 238.1 208.3 265.7 173.32 341.95 157.5 340.88 154.94 356.93 139.85 374.15 139.6 382.55 159.66 370.28 171.75 348.26 172.58 347.18 170 282.38 213.2"/><path class="cls-4" d="M485.69,256.32c-1.4.58-3.89-2.16-5.55-6.13s-1.87-7.67-.46-8.26c.57-.24,1.32.08,2.11.79a1.92,1.92,0,0,1,.65-.44c1.22-.51,2.77.4,3.45,2a3.92,3.92,0,0,1,.32,1.61,4,4,0,0,1,3,2.53,3.65,3.65,0,0,1-1.08,4.61,1.85,1.85,0,0,1-1,2.14,1.46,1.46,0,0,1-.68.12A1.49,1.49,0,0,1,485.69,256.32Z" transform="translate(-116.99 -98.58)"/><path class="cls-4" d="M419.63,294.83c-1.4.59-3.89-2.16-5.55-6.13s-1.87-7.66-.46-8.25c.57-.24,1.32.08,2.11.79a1.92,1.92,0,0,1,.65-.44c1.22-.51,2.77.39,3.46,2a4.15,4.15,0,0,1,.31,1.62,4,4,0,0,1,3,2.53,3.65,3.65,0,0,1-1.08,4.61,1.85,1.85,0,0,1-1,2.14,1.6,1.6,0,0,1-.68.12A1.47,1.47,0,0,1,419.63,294.83Z" transform="translate(-116.99 -98.58)"/><path class="cls-4" d="M445.67,275.49c-1.41.59-3.9-2.16-5.56-6.13s-1.87-7.66-.46-8.25c.57-.24,1.32.08,2.12.79a1.79,1.79,0,0,1,.64-.44c1.22-.51,2.78.39,3.46,2a3.9,3.9,0,0,1,.31,1.61,4,4,0,0,1,3,2.53,3.65,3.65,0,0,1-1.08,4.61,1.84,1.84,0,0,1-1,2.14,1.6,1.6,0,0,1-.68.12A1.46,1.46,0,0,1,445.67,275.49Z" transform="translate(-116.99 -98.58)"/><path class="cls-4" d="M397.87,310c-1.41.59-3.89-2.16-5.56-6.13s-1.86-7.66-.46-8.25c.58-.24,1.32.07,2.12.79a1.88,1.88,0,0,1,.64-.44c1.23-.51,2.78.39,3.46,2a3.76,3.76,0,0,1,.31,1.62,4,4,0,0,1,3,2.52,3.67,3.67,0,0,1-1.08,4.61,1.86,1.86,0,0,1-1,2.15,1.48,1.48,0,0,1-.69.11A1.43,1.43,0,0,1,397.87,310Z" transform="translate(-116.99 -98.58)"/><path class="cls-4" d="M397.19,293.34c-1.41.59-3.9-2.16-5.56-6.13s-1.86-7.67-.46-8.25c.58-.24,1.32.07,2.12.78a2.21,2.21,0,0,1,.64-.44c1.23-.51,2.78.4,3.46,2a3.75,3.75,0,0,1,.31,1.61,4,4,0,0,1,3,2.53,3.65,3.65,0,0,1-1.08,4.61,1.86,1.86,0,0,1-.95,2.15,1.67,1.67,0,0,1-.69.11A1.45,1.45,0,0,1,397.19,293.34Z" transform="translate(-116.99 -98.58)"/><path class="cls-4" d="M370.07,302.32c-1.4.58-3.89-2.16-5.56-6.13l-.33-.84,5.1-6.46a3.81,3.81,0,0,1,1,1.42,3.75,3.75,0,0,1,.31,1.61,4,4,0,0,1,3,2.53,3.68,3.68,0,0,1-1.08,4.61,1.85,1.85,0,0,1-1,2.14,1.35,1.35,0,0,0-1.45,1.12Z" transform="translate(-116.99 -98.58)"/><path class="cls-4" d="M422.77,271.82c-1.4.59-3.89-2.16-5.55-6.13-.13-.3-.24-.59-.35-.88l8.84-1.83a5.08,5.08,0,0,1,.55,1,3.65,3.65,0,0,1-1.08,4.61,1.86,1.86,0,0,1-1,2.15,1.46,1.46,0,0,1-.68.11A1.49,1.49,0,0,1,422.77,271.82Z" transform="translate(-116.99 -98.58)"/><path class="cls-4" d="M434.82,288.14c-.29-.55-.56-1.14-.82-1.76-1.66-4-1.87-7.66-.46-8.25.57-.24,1.32.08,2.12.79a1.79,1.79,0,0,1,.64-.44c1.22-.51,2.77.39,3.46,2a3.9,3.9,0,0,1,.31,1.61,3.62,3.62,0,0,1,2.07,1.14Z" transform="translate(-116.99 -98.58)"/><path class="cls-4" d="M471.17,270.94a16.9,16.9,0,0,1-3-4.88c-1.66-4-1.87-7.66-.46-8.25.57-.24,1.32.07,2.11.79a1.92,1.92,0,0,1,.65-.44c1.22-.52,2.77.39,3.46,2a3.9,3.9,0,0,1,.31,1.61,4,4,0,0,1,3,2.53,3.65,3.65,0,0,1-1.08,4.61,2,2,0,0,1-.49,1.83Z" transform="translate(-116.99 -98.58)"/><path class="cls-1" d="M575.19,103.93s5.66,16.85-11.83,10.43-45.3-23.46-65.25-11.8A95.38,95.38,0,0,0,468,130.11s-8.73-33.32-39.59-10.72c-30.68,22.46.84,57,8.43,54.07,0,0-3.48,24.56,20.39,49.28l61.11,49.93s24.85,17.74,53.11,12.73c0,0,28.93,30.14,51.14-.53s-8.34-41.41-12.93-40.43c0,0,34.19-36,15.71-61.57s-35.81-51.3-17.74-47.32,9.58-.11,9.58-.11-17.59-7.48-22.6-4.83c0,0-.86-15.77-5-15.87,0,0-1.71,12-6.09,11C583.49,125.69,578.86,104.08,575.19,103.93Z" transform="translate(-116.99 -98.58)"/><path class="cls-4" d="M588.59,205.37c12.95-15.86,14.53-36,3.53-45-10-8.13-26.77-4.39-39.46,8.1,9.67-14.95,9.89-32.26-.17-40.48-11.15-9.11-30.69-3.64-43.64,12.21-6.22,7.61-9.79,16.24-10.6,24.14a31.79,31.79,0,0,0-17.9,10.73c-13.57,16.61-6.72,44.66,15.3,62.65s50.87,19.12,64.44,2.51a31.65,31.65,0,0,0,7-19.61C574.62,218.26,582.35,213,588.59,205.37ZM545,177.77l.26-.24-.18.3Z" transform="translate(-116.99 -98.58)"/><path class="cls-1" d="M535,193.08s13.61-1.37,18.42,4.58S544.4,202.34,535,193.08Z" transform="translate(-116.99 -98.58)"/><path class="cls-1" d="M531.56,190.23s-1.37-13.61-8.15-17.14S520.62,182.91,531.56,190.23Z" transform="translate(-116.99 -98.58)"/><ellipse class="cls-5" cx="530.29" cy="154.71" rx="10.14" ry="6.2" transform="translate(-42.03 368.87) rotate(-50.75)"/><ellipse class="cls-5" cx="570.4" cy="187.48" rx="10.14" ry="6.2" transform="translate(-52.68 411.96) rotate(-50.75)"/><path class="cls-3" d="M607.67,206.16l3.39-4.15c1-1.21,1.56-1.92,0-3.32s-4.21-4.14-4.21-4.14C590,175.37,578,170.08,578,170.08c-14.24-7.38-17.89-9.81-18.59-10.31h0c-.64-.59-3.75-3.68-13.82-16.17,0,0-7.57-10.74-29.73-23.45,0,0-3.21-2.06-4.9-3.3s-2.26-.53-3.25.68l-3.39,4.15s-.84.83.42,3.2-5.24,11.58-5.85,12.93-6.41,10.95-2.73,18,4.6,8.82,10.12,13,14.71,8.81,25.45,5.79,16.39-11.51,22-7.83c4.71,4.73-2.48,12.05-3.3,23.08s5.55,19.21,10.74,23.79,7.11,5.13,14.76,7.33,15.88-5.4,17.09-6.27,8.92-9.06,11.5-8.3S607.67,206.16,607.67,206.16Zm-65.49-40.7c-7.68,4.85-9.73,7.94-19.56,7.63s-16.2-7-21.1-12.36-3.91-15.85,1.78-23.84S514.87,126.45,518,126.6s9.76,3.94,9.76,3.94,8.83,5.7,11.43,9.33,6.93,8,8,11.26S549.85,160.6,542.18,165.46ZM593,210.14c-6.7,7.17-16.79,10.23-23,6.5s-14.05-8.65-16.31-18.22.35-12.19,3.58-20.68,9.67-8.12,13-7.72,8.55,3.78,12.63,5.6S594.31,185,594.31,185s5,5.81,5.8,8.79S599.65,203,593,210.14Z" transform="translate(-116.99 -98.58)"/><ellipse class="cls-5" cx="509.65" cy="222.55" rx="6.86" ry="20.92" transform="translate(-78.48 419.43) rotate(-55.68)"/></g><g id="banana"><path class="cls-6" d="M229.05,474.84a11.78,11.78,0,0,0,10.32,8.72c8.61.92,29.22-1.65,30.45-4.36s32.3-15.33,33.22-18.71S310.12,450,308,447.88s-12.61-1.85-14.15,0-15.38,9.23-15.38,9.23l-17.84-21.23H241Z" transform="translate(-116.99 -98.58)"/><path class="cls-7" d="M375.39,492c1.61.55,4.38,6.66,2.7,6.94-29.53,4.89-76.65-2.76-97.88-11.08-23.56-9.22-24.48-20.49-24.48-40.73,0-16.1,3.94-18.32-11.24-55.45l3.95-2.74s10.5,8.54,19.24,28.17c4.56,10.23,11.74,38.67,27.36,44.61C338.72,478.33,352.62,484.31,375.39,492Z" transform="translate(-116.99 -98.58)"/><path class="cls-8" d="M118.19,480.43l-1.2-7.95s15.86,1.51,38.41-1.84,32.1,8.79,46.75-5.18S260.26,431,241,394.09l3.46-2.41s11.62,4.57,13,47.77c.49,15-27.33,36.58-37.53,40.42-24,9-27.86,18.67-59.67,6.15C149.33,481.69,118.19,480.43,118.19,480.43Z" transform="translate(-116.99 -98.58)"/><path class="cls-9" d="M117.21,481.49l-.22-9.83s6.7.92,9.36,1.08c0,0-2,4.62.06,8.86Z" transform="translate(-116.99 -98.58)"/><path class="cls-9" d="M241,394.09l7.41-5.15a82.25,82.25,0,0,1,6.34,6.72s-5.37-.14-10.32,6Z" transform="translate(-116.99 -98.58)"/></g></svg>