<?xml version="1.0" encoding="utf-8"?>
<!-- Generator: Adobe Illustrator 16.0.0, SVG Export Plug-In . SVG Version: 6.00 Build 0)  -->
<!DOCTYPE svg PUBLIC "-//W3C//DTD SVG 1.1//EN" "http://www.w3.org/Graphics/SVG/1.1/DTD/svg11.dtd">
<svg version="1.1" id="Layer_1" xmlns="http://www.w3.org/2000/svg" xmlns:xlink="http://www.w3.org/1999/xlink" x="0px" y="0px"
	 width="550px" height="165px" viewBox="0 0 550 165" enable-background="new 0 0 550 165" xml:space="preserve">
<g>
	<path fill="#06A0DD" d="M3.506,3.488c3.908,0,7.68-0.128,11.429,0.105c0.779,0.048,1.76,1.316,2.164,2.232
		c7.629,17.32,15.19,34.668,22.754,52.015c1.69,3.877,3.335,7.773,5.072,11.825c0.271-0.359,0.58-0.642,0.735-0.992
		c9.308-21.106,18.583-42.228,27.97-63.298c0.385-0.865,1.773-1.738,2.748-1.804c3.3-0.224,6.623-0.085,10.083-0.085
		c0,27.311,0,54.313,0,81.536c-3.122,0-6.117,0-9.316,0c0-22.328,0-44.603,0-67.2c-5.02,11.325-9.889,22.328-14.774,33.324
		c-4.683,10.543-9.402,21.069-14.052,31.626c-0.714,1.619-1.466,2.569-3.528,2.563c-2.044-0.002-2.811-0.916-3.532-2.543
		c-8.73-19.691-17.52-39.355-26.256-59.043c-0.822-1.852-1.385-3.818-2.411-5.662c0,22.235,0,44.47,0,66.929
		c-3.072,0-5.984,0-9.086,0C3.506,57.96,3.506,30.955,3.506,3.488z"/>
	<path fill="#07A1DD" d="M442.028,86.549c-16.646-0.008-27.995-11.237-28.312-27.917c-0.126-6.674,0.525-13.201,3.856-19.115
		c6.489-11.518,16.993-15.063,29.39-13.902c13.912,1.302,22.606,10.416,24.088,24.504c0.63,5.98,0.429,11.894-1.453,17.644
		C465.625,79.909,455.822,86.554,442.028,86.549z M461.897,56.624c-0.574-3.733-0.804-7.087-1.642-10.282
		c-1.878-7.168-6.419-11.838-13.904-13.019c-8.473-1.336-15.836,1.792-19.522,8.485c-4.808,8.731-4.823,17.888-0.673,26.774
		c3.697,7.918,10.735,10.533,19.063,9.91c7.185-0.536,12.188-4.398,14.521-11.142C460.956,63.835,461.249,59.998,461.897,56.624z"/>
	<path fill="#07A1DD" d="M259.182,55.843c-0.228,10.238-2.935,19.47-11.681,25.568c-9.771,6.814-20.565,7.013-31.128,2.229
		c-9.917-4.491-14.271-13.193-14.757-23.727c-0.205-4.443,0.114-9.064,1.13-13.386c3.017-12.833,13.181-20.798,26.362-21.055
		c3.134-0.06,6.346,0.066,9.405,0.687c10.762,2.184,18.214,10.488,19.9,21.896C258.794,50.632,258.932,53.246,259.182,55.843z
		 M249.808,56.398c-0.685-3.699-1.102-7.473-2.114-11.081c-1.973-7.03-6.787-11.166-14.042-12.025
		c-7.849-0.928-14.691,1.252-18.685,8.484c-5.112,9.251-4.946,18.85-0.004,28.167c5.693,10.733,22.896,11.516,29.899,2.581
		C248.57,67.789,249.336,62.236,249.808,56.398z"/>
	<path fill="#07A1DD" d="M149.699,26.688c-3.145,7.974-6.101,15.499-9.08,23.016c-6.01,15.158-12.009,30.324-18.058,45.468
		c-2.295,5.748-5.14,11.143-10.427,14.808c-4.268,2.958-8.978,3.558-13.937,2.507c-0.646-0.136-1.558-1.012-1.609-1.607
		c-0.192-2.219-0.077-4.467-0.077-6.955c0.949,0.15,1.619,0.244,2.284,0.357c6.364,1.1,10.719-1.115,13.328-6.998
		c1.57-3.541,3.001-7.15,4.258-10.813c0.361-1.053,0.184-2.497-0.233-3.576c-6.994-18.064-14.065-36.1-21.116-54.143
		c-0.196-0.499-0.363-1.008-0.727-2.028c3.407,0,6.591-0.095,9.757,0.091c0.549,0.032,1.236,1.186,1.504,1.946
		c5.359,15.305,10.667,30.63,15.997,45.948c0.045,0.133,0.222,0.218,0.504,0.483c1.458-4.011,2.872-7.938,4.31-11.854
		c4.191-11.417,8.426-22.82,12.561-34.258c0.646-1.787,1.504-2.612,3.502-2.435C144.67,26.839,146.93,26.688,149.699,26.688z"/>
	<path fill="#08A2DD" d="M490.832,85.045c-3.317,0-6.176,0-9.254,0c0-19.431,0-38.75,0-58.28c2.909,0,5.84,0,9.19,0
		c0,2.68,0,5.387,0,7.811c3.376-2.551,6.345-5.504,9.894-7.334c8.982-4.636,20.674-1.729,25.322,5.826
		c2.728,4.436,3.782,9.392,3.851,14.466c0.163,12.078,0.057,24.159,0.045,36.239c0,0.428-0.139,0.855-0.235,1.417
		c-3.032,0-5.956,0-9.26,0c0-1.096,0-2.056,0-3.016c0-10.185,0.074-20.373-0.049-30.559c-0.035-2.854-0.312-5.794-1.055-8.538
		c-2.638-9.707-14.479-12.962-22.012-6.176c-4.588,4.131-6.464,9.387-6.445,15.457c0.027,9.826,0.008,19.654,0.008,29.48
		C490.832,82.81,490.832,83.782,490.832,85.045z"/>
	<path fill="#08A1DD" d="M294.259,26.876c2.837,0,5.763,0,8.954,0c0,1.521-0.005,2.854,0,4.188
		c0.034,10.366,0.063,20.73,0.117,31.096c0.005,1.075,0.115,2.159,0.289,3.222c1.431,8.758,5.404,12.822,12.796,13.133
		c7.706,0.321,13.696-4.261,15.669-12.146c0.453-1.813,0.648-3.734,0.66-5.608c0.061-10.365,0.027-20.73,0.027-31.097
		c0-0.879,0-1.759,0-2.803c3.238,0,6.162,0,9.287,0c0,19.416,0,38.727,0,58.211c-3.021,0-5.947,0-9.17,0c0-2.567,0-5.052,0-7.999
		c-0.652,0.489-0.963,0.619-1.123,0.853c-5.652,8.284-14.137,10.213-23.971,7.823c-8.878-2.156-12.984-9.024-13.365-17.356
		C293.802,54.659,294.259,40.876,294.259,26.876z"/>
	<path fill="#07A1DD" d="M154.5,73.165c6.86,4.631,13.8,6.6,21.303,5.105c2.371-0.473,5.015-1.86,6.565-3.661
		c2.628-3.054,1.759-7.578-1.665-10.01c-2.534-1.798-5.477-3.04-8.29-4.421c-3.468-1.703-7.087-3.118-10.473-4.966
		c-9.269-5.062-9.413-19.054-0.617-24.995c8.972-6.06,18.591-5.907,28.436-2.517c0.493,0.169,1.156,0.798,1.173,1.236
		c0.108,2.746,0.055,5.499,0.055,8.379c-2.958-1.12-5.479-2.313-8.127-3.024c-4.605-1.238-9.272-1.465-13.719,0.724
		c-5.631,2.771-6.23,9.708-0.903,13.064c3.241,2.042,6.996,3.258,10.486,4.915c2.761,1.31,5.548,2.592,8.186,4.126
		c9.234,5.367,8.471,18.987,0.847,24.657c-7.775,5.786-23.633,6.93-31.997,2.071c-0.571-0.331-1.174-1.157-1.204-1.781
		C154.425,79.309,154.5,76.536,154.5,73.165z"/>
	<path fill="#06A0DD" d="M367.081,9.729c0,5.706,0,11.253,0,17.172c4.948,0,9.662,0,14.544,0c0,2.838,0,5.303,0,8.017
		c-4.74,0-9.391,0-14.361,0c-0.054,1.085-0.132,1.943-0.132,2.801c-0.008,10.271-0.006,20.543-0.003,30.814
		c0,0.541-0.003,1.083,0.037,1.622c0.507,6.672,5.261,9.889,11.684,7.896c0.84-0.262,1.654-0.606,2.928-1.081
		c0,2.479,0.154,4.69-0.092,6.86c-0.076,0.67-1.15,1.571-1.924,1.771c-10.943,2.858-21.803,0.103-22.025-14.806
		c-0.295-19.819-0.066-39.645-0.051-59.467c0.002-0.52,0.158-1.038,0.25-1.601C360.966,9.729,363.898,9.729,367.081,9.729z"/>
	<path fill="#05A0DD" d="M270.473,3.62c3.022,0,5.876,0,8.972,0c0,27.101,0,54.169,0,81.429c-2.942,0-5.862,0-8.972,0
		C270.473,57.963,270.473,30.963,270.473,3.62z"/>
	<path fill="#05A0DD" d="M402.213,85.25c-3.081,0-5.854,0-8.89,0c0-19.398,0-38.705,0-58.242c2.873,0,5.778,0,8.89,0
		C402.213,46.351,402.213,65.669,402.213,85.25z"/>
	<path fill="#0EA4DE" d="M314.451,123.778c0.081-1.243,0.132-2.024,0.195-3.01c1.359,0,2.643,0,3.908,0
		c0.125,0.185,0.309,0.329,0.309,0.478c0.055,8.82,0.345,17.653,0.061,26.467c-0.252,7.881-4.99,12.172-12.854,12.299
		c-2.053,0.033-4.153-0.129-6.158-0.547c-3.902-0.813-3.979-1.06-3.448-5.314c5.119,1.75,10.379,3.893,15.237-0.238
		c2.969-2.525,2.811-6.24,2.84-9.867c-0.331,0.033-0.678-0.035-0.796,0.098c-3.351,3.77-7.464,4.923-12.22,3.373
		c-4.717-1.536-6.873-5.381-7.115-9.896c-0.188-3.492,0.322-7.226,1.433-10.543C298.449,119.28,309.285,117.408,314.451,123.778z
		 M314.622,134c0-1.076,0.095-2.164-0.019-3.229c-0.371-3.499-2.74-6.085-6.027-6.686c-3.479-0.635-6.512,0.713-8.078,3.937
		c-2.025,4.164-2.289,8.479-0.1,12.69c1.961,3.769,6.168,4.99,9.896,2.955C314.156,141.563,314.898,137.98,314.622,134z"/>
	<path fill="#11A5DE" d="M461.12,120.846c-0.856,2.947-1.693,5.867-2.556,8.779c-1.56,5.271-3.194,10.521-4.664,15.815
		c-0.441,1.586-1.138,2.194-2.808,2.138c-1.586-0.053-2.634-0.193-3.138-2.068c-1.596-5.963-3.412-11.868-5.694-17.842
		c-1.334,4.166-2.673,8.328-3.997,12.49c-0.49,1.547-0.994,3.096-1.399,4.663c-0.414,1.603-0.938,2.659-3.015,2.673
		c-2.078,0.012-2.523-1.021-2.999-2.634c-2.11-7.174-4.322-14.319-6.487-21.479c-0.251-0.83-0.441-1.68-0.667-2.543
		c4.339-0.623,4.343-0.623,5.41,3.158c1.578,5.603,3.151,11.207,5.232,16.863c1.424-4.52,2.853-9.038,4.272-13.559
		c0.484-1.545,1.022-3.08,1.401-4.652c0.363-1.507,0.987-2.246,2.744-2.254c1.821-0.007,2.211,0.861,2.605,2.331
		c1.633,6.075,3.389,12.116,5.63,18.198c1.265-4.623,2.53-9.242,3.79-13.865c0.308-1.131,0.585-2.27,0.889-3.4
		C456.656,120.012,456.659,120.015,461.12,120.846z"/>
	<path fill="#11A5DE" d="M466.361,126.135c-0.391-3.98-0.129-4.403,3.602-5.461c0.95-0.27,1.927-0.484,2.904-0.607
		c8.202-1.018,12.065,2.391,12.091,10.652c0.016,5.475,0.003,10.943,0.003,16.611c-1.553,0-2.851,0-4.403,0
		c-0.124-0.877-0.257-1.813-0.4-2.836c-1.564,0.998-3.009,2.193-4.66,2.916c-4.834,2.115-10.072-0.018-11.595-4.554
		c-1.725-5.131,0.939-9.681,6.534-10.938c2.538-0.57,5.125-0.992,7.713-1.267c2.052-0.217,2.297-1.159,1.811-2.907
		c-0.817-2.925-2.654-4.418-5.828-3.873C471.539,124.315,469.044,125.33,466.361,126.135z M479.703,133.971
		c-2.979,0.574-5.838,0.934-8.579,1.713c-2.587,0.734-3.68,2.82-3.188,5.171c0.49,2.349,2.28,3.638,4.979,3.571
		C477.743,144.314,480.911,139.705,479.703,133.971z"/>
	<path fill="#10A4DE" d="M210.268,130.274c0.021-7.129-4.678-8.334-13.451-3.81c-1.03-3.564-0.681-4.637,2.716-5.506
		c2.574-0.658,5.342-1.006,7.984-0.846c4.425,0.268,7.247,3.193,7.427,7.823c0.249,6.375,0.062,12.771,0.062,19.371
		c-1.483,0-2.695,0-4.126,0c-0.188-0.685-0.416-1.507-0.493-1.793c-2.822,0.87-5.586,2.204-8.455,2.491
		c-4.111,0.408-7.265-2.414-7.915-6.228c-0.741-4.343,1.083-8.017,5.052-9.323c2.541-0.838,5.275-1.09,7.925-1.596
		C208.109,130.648,209.228,130.459,210.268,130.274z M209.968,133.98c-2.896,0.54-5.667,0.885-8.337,1.598
		c-2.77,0.741-3.908,2.756-3.38,5.26c0.526,2.488,2.392,3.773,5.199,3.586C208.092,144.108,210.859,139.875,209.968,133.98z"/>
	<path fill="#0FA4DE" d="M531.708,135.084c-6.604,0-12.606,0-18.771,0c-0.521,3.146,0.689,5.475,2.658,7.381
		c2.736,2.65,5.586,2.533,13.694-0.185c0.887,2.612,0.025,4.072-2.64,5.046c-6.901,2.512-13.466,0.752-16.651-4.738
		c-3.603-6.209-2.229-15.754,2.863-19.896c6.325-5.143,15.234-2.667,17.685,5.049C531.258,129.977,531.309,132.422,531.708,135.084z
		 M526.784,131.276c0.052-4.649-2.497-7.555-6.382-7.538c-3.693,0.018-7.646,3.521-6.986,7.538
		C517.862,131.276,522.324,131.276,526.784,131.276z"/>
	<path fill="#10A5DE" d="M374.291,148.115c-7.949-0.021-12.958-5.324-12.938-13.699c0.021-8.75,5.567-14.414,14.056-14.35
		c7.528,0.059,12.284,5.523,12.255,14.083C387.631,142.676,382.402,148.135,374.291,148.115z M383.422,134.646
		c0.027-5.32-2.047-9.029-5.775-10.337c-4.51-1.578-8.857,0.313-10.713,4.655c-2.345,5.482-0.52,12.373,3.875,14.627
		C377.46,147.006,383.38,142.808,383.422,134.646z"/>
	<path fill="#11A5DE" d="M271.148,120.852c0.104,1.038,0.19,1.891,0.223,2.227c2.64-1.015,5.162-2.565,7.833-2.886
		c5.375-0.642,9.304,2.772,9.692,8.572c0.406,6.088,0.092,12.222,0.092,18.549c-1.473,0-2.76,0-4.391,0
		c0-3.251,0.024-6.472-0.009-9.69c-0.026-2.608-0.013-5.232-0.221-7.834c-0.267-3.334-1.909-5.268-4.668-5.863
		c-2.847-0.617-5.547,0.52-6.935,3.412c-0.829,1.725-1.299,3.744-1.415,5.66c-0.218,3.592-0.058,7.207-0.061,10.813
		c-0.001,3.934-0.003,3.934-4.269,3.533c0-8.744,0-17.516,0-26.491C268.287,120.852,269.578,120.852,271.148,120.852z"/>
	<path fill="#11A5DE" d="M219.369,120.61c1.67,0,2.829,0,4.372,0c0-1.61-0.007-3.098,0.001-4.583
		c0.032-4.74,3.491-8.505,8.114-8.837c3.341-0.235,3.83,0.293,3.518,3.347c-2.171,0.719-5.032,0.803-5.952,2.182
		c-1.293,1.934-1.145,4.832-1.677,7.66c2.535,0.115,4.383,0.199,6.435,0.293c0,1.18,0,2.277,0,3.684c-1.974,0-3.816,0-6.007,0
		c0,4.046,0,7.798,0,11.549c0,3.684,0,7.364,0,10.995c-3.954,1.17-4.378,0.863-4.373-2.962c0.006-5.488,0.005-10.979,0.008-16.467
		c0-0.877,0-1.752,0-2.746c-1.659-0.1-2.982-0.18-4.439-0.266C219.369,123.155,219.369,121.982,219.369,120.61z"/>
	<path fill="#0FA4DE" d="M244.337,147.232c-1.726,0-2.943,0-4.395,0c0-7.514,0-14.859,0-22.47c-1.507-0.113-2.806-0.212-4.341-0.328
		c0-1.134,0-2.235,0-3.603c1.281-0.099,2.583-0.199,4.303-0.33c0-1.797-0.073-3.558,0.015-5.309
		c0.224-4.515,3.878-7.949,8.303-7.885c3.288,0.048,3.639,0.482,3.105,3.855c-6.491-0.106-8.073,2.01-6.762,9.389
		c1.787,0,3.632,0,5.649,0c0,1.318,0,2.351,0,3.658c-1.875,0-3.722,0-5.877,0C244.337,131.986,244.337,139.494,244.337,147.232z"/>
	<path fill="#10A4DE" d="M170.936,124.797c-2.927-0.299-5.762-0.973-8.529-0.762c-2.942,0.223-4.313,2.846-2.988,4.99
		c0.517,0.837,1.55,1.455,2.474,1.921c2.089,1.05,4.302,1.849,6.377,2.921c2.43,1.254,3.751,3.348,3.763,6.113
		c0.01,2.898-1.485,5.078-3.948,6.313c-3.756,1.886-7.804,2.041-11.841,0.965c-2.965-0.793-1.413-3.123-1.653-4.936
		c2.124,0.631,4.047,1.383,6.042,1.73c1.374,0.236,2.965,0.232,4.237-0.25c1.094-0.415,2.508-1.584,2.627-2.559
		c0.139-1.14-0.654-2.9-1.613-3.554c-1.901-1.295-4.189-2.028-6.329-2.974c-2.811-1.233-4.98-2.977-4.945-6.379
		c0.035-3.433,1.849-6.381,5.428-7.201c3.046-0.694,6.385-0.657,9.514-0.284C172.319,121.185,170.805,123.578,170.936,124.797z"/>
	<path fill="#0EA4DE" d="M405.531,124.287c-1.791,0-3.58,0-5.756,0c0,3.354,0,6.473,0,9.594c0,3.33,0.001,6.662,0,9.994
		c0,3.867-0.313,4.098-4.406,3.068c0-7.301,0-14.656,0-22.292c-1.572-0.097-2.954-0.181-4.469-0.274c0-1.207,0-2.244,0-3.541
		c1.359-0.1,2.666-0.192,4.423-0.32c0-1.6-0.05-3.178,0.009-4.752c0.175-4.659,3.694-8.359,8.102-8.566
		c3.373-0.16,3.855,0.358,3.571,3.354c-2.174,0.716-5.027,0.793-5.956,2.168c-1.305,1.935-1.184,4.836-1.779,7.867
		c2.543,0,4.395,0,6.246,0C405.521,121.818,405.526,123.053,405.531,124.287z"/>
	<path fill="#10A4DE" d="M339.734,142.625c2.752,0.554,5.338,1.313,7.968,1.525c2.042,0.17,4.401-0.182,4.968-2.713
		c0.604-2.695-1.459-3.795-3.523-4.689c-1.98-0.857-4.057-1.533-5.949-2.557c-4.92-2.65-5.381-8.354-0.902-11.723
		c3.76-2.828,8.086-3.049,12.329-1.475c0.909,0.338,1.138,2.506,1.955,4.5c-2.31-0.683-3.636-1.309-5.002-1.422
		c-1.753-0.146-3.653-0.219-5.271,0.329c-1.02,0.345-2.199,1.836-2.273,2.888c-0.074,1.026,0.918,2.537,1.878,3.146
		c1.878,1.188,4.089,1.843,6.108,2.828c3.854,1.878,5.295,4.278,4.838,7.846c-0.406,3.195-2.994,5.657-6.824,6.333
		c-1.68,0.297-3.396,0.441-5.102,0.529C340.661,148.189,339.418,146.85,339.734,142.625z"/>
	<path fill="#0DA3DE" d="M190.504,143.873c0.538,3.211-0.159,4.08-3.313,4.131c-5.151,0.082-7.658-2.262-7.787-7.516
		c-0.108-4.41-0.022-8.831-0.037-13.244c-0.003-0.877-0.074-1.752-0.119-2.75c-1.406-0.109-2.63-0.203-4.038-0.313
		c0-1.118,0-2.149,0-3.416c1.329-0.132,2.712-0.269,4.104-0.404c0.247-2.239,0.199-4.427,0.857-6.376
		c0.24-0.709,2.17-0.845,3.704-1.369c0,2.762,0,5.154,0,7.874c2.311,0,4.329,0,6.515,0c0,1.365,0,2.396,0,3.787
		c-2.06,0-4.075,0-6.266,0c0,5.819-0.198,11.293,0.083,16.742C184.352,143.836,186.157,144.453,190.504,143.873z"/>
	<path fill="#0EA4DE" d="M406.844,120.681c1.339-0.077,2.68-0.151,4.11-0.233c1.333-2.594-1.751-7.916,4.765-7.394
		c0,2.344,0,4.725,0,7.415c2.3,0,4.321,0,6.537,0c0,1.337,0,2.369,0,3.728c-1.964,0-3.979,0-6.447,0c0,2.964,0,5.62,0,8.279
		c0,1.979-0.005,3.963,0,5.944c0.016,5.17,1.315,6.304,6.247,5.451c0.948,3.236,0.402,4.02-2.878,4.129
		c-5.079,0.17-7.52-2.022-7.706-7.213c-0.158-4.406-0.087-8.818-0.115-13.229c-0.007-0.973-0.001-1.942-0.001-3.063
		c-1.691-0.117-3.104-0.214-4.515-0.311C406.842,123.017,406.844,121.848,406.844,120.681z"/>
	<path fill="#0AA2DD" d="M496.254,147.02c-1.553,0-2.783,0-4.2,0c0-8.696,0-17.279,0-26.115c1.268,0,2.542,0,4.013,0
		c0.113,1.195,0.228,2.396,0.322,3.389c1.555-1.256,2.952-2.834,4.704-3.651c1.209-0.567,3.222-0.578,4.28,0.094
		c0.729,0.466,0.444,2.527,0.63,4.002c-6.27-1.216-9.299,1.044-9.665,7.13c-0.242,4.03-0.07,8.09-0.084,12.135
		C496.251,144.965,496.254,145.933,496.254,147.02z"/>
	<path fill="#10A5DE" d="M258.723,147.375c-1.365,0-2.578,0-3.977,0c0-8.84,0-17.541,0-26.483c1.239,0,2.516,0,3.977,0
		C258.723,129.619,258.723,138.323,258.723,147.375z"/>
	<path fill="#0AA2DD" d="M403.422,8.803c0.081,3.043-2.225,5.457-5.325,5.575c-3.052,0.117-5.474-2.178-5.602-5.303
		c-0.129-3.171,2.028-5.523,5.187-5.654C400.965,3.285,403.334,5.506,403.422,8.803z"/>
	<path fill="#11A5DE" d="M253.534,110.621c1.04-0.688,2.016-1.789,3.134-1.959c1.552-0.238,2.737,0.771,2.755,2.543
		c0.02,1.85-1.027,3.055-2.8,2.754c-1.116-0.189-2.071-1.328-3.098-2.043C253.528,111.484,253.531,111.051,253.534,110.621z"/>
	<path fill="#B2E1F4" d="M406.844,120.681c0,1.167-0.002,2.336-0.003,3.506c-0.437,0.035-0.874,0.067-1.31,0.101
		c-0.005-1.233-0.01-2.469-0.016-3.703C405.958,120.617,406.401,120.648,406.844,120.681z"/>
</g>
<circle fill="none" stroke="#009FDD" stroke-width="2" stroke-miterlimit="10" cx="538.667" cy="28.23" r="5.542"/>
<g>
	<path fill="#009FDD" d="M537.939,28.725v2.904h-1.604v-7.568h2.205c1.028,0,1.789,0.188,2.282,0.562
		c0.494,0.375,0.74,0.943,0.74,1.706c0,0.445-0.122,0.841-0.367,1.188s-0.592,0.619-1.04,0.815c1.139,1.701,1.881,2.8,2.226,3.297
		h-1.78l-1.807-2.904H537.939z M537.939,27.42h0.518c0.508,0,0.882-0.084,1.123-0.254c0.242-0.169,0.362-0.435,0.362-0.797
		c0-0.359-0.123-0.614-0.369-0.766c-0.247-0.152-0.63-0.228-1.147-0.228h-0.486V27.42z"/>
</g>
</svg>
