<?xml version="1.0" encoding="utf-8"?>
<!-- Generator: Adobe Illustrator 25.2.1, SVG Export Plug-In . SVG Version: 6.00 Build 0)  -->
<svg version="1.1" id="Layer_1" xmlns="http://www.w3.org/2000/svg" xmlns:xlink="http://www.w3.org/1999/xlink" x="0px" y="0px"
	 viewBox="0 0 305 97" style="enable-background:new 0 0 305 97;" xml:space="preserve">
<style type="text/css">
	.st0{fill:#02414D;}
	.st1{fill:url(#SVGID_1_);}
</style>
<path class="st0" d="M21.7,42.7c-0.4-1.8-0.7-3.8-0.9-6.1c-0.2-2.3-0.3-5-0.3-8.2c0-3.2,0.2-6.2,0.6-9.1c0.4-2.8,0.9-5.3,1.5-7.3
	c0.7-2,1.5-3.7,2.6-5.1c1.1-1.4,2.2-2.5,3.4-3.3c1.1-0.8,2.5-1.4,4.2-1.9c2.6-0.8,5.4-1.1,8.3-1.1s5,0.1,6.4,0.2
	c1.3,0.1,2.7,0.3,4.2,0.6c1.5,0.3,2.8,0.8,3.8,1.4c1.1,0.6,2.1,1.4,3.2,2.3c1.1,0.9,2,2.1,2.7,3.6c0.7,1.4,1.3,3.1,1.9,5
	c1.1,3.7,1.7,8.1,1.7,13.1c0,5-0.2,8.8-0.6,11.5c-0.4,2.7-0.9,5-1.5,7c-0.6,1.9-1.4,3.6-2.5,5c-1,1.4-2.1,2.5-3.3,3.3
	c-1.1,0.8-2.5,1.5-4.1,1.9c-3.7,1.1-8.7,1.5-14.8,1.1c-3.1-0.2-5.4-0.5-6.8-1.1c-1.4-0.6-2.6-1.2-3.7-1.9c-1-0.7-1.9-1.5-2.6-2.5
	c-0.7-1-1.4-2.2-2-3.6C22.6,46,22.1,44.4,21.7,42.7 M32,17.7c-0.3,1.3-0.5,2.9-0.6,4.8c-0.2,1.9-0.2,4.2-0.2,7
	c0,2.8,0.1,5.2,0.3,7.2c0.2,2,0.5,3.7,1,5.1c0.5,1.4,1.2,2.5,2.2,3.2c1.7,1.3,4.4,1.9,8.2,1.9c3.5,0,6.2-0.7,7.9-2
	c2.5-1.9,3.7-7.2,3.7-15.9c0-5.9-0.3-9.8-0.9-11.7c-0.6-1.9-1.2-3.3-1.7-4.1c-0.5-0.8-1.3-1.4-2.2-1.9c-1.6-0.7-3.4-1-5.5-1
	c-2.1,0-3.6,0-4.4,0.1c-0.8,0.1-1.7,0.2-2.6,0.5c-0.9,0.3-1.7,0.6-2.2,1.2c-0.5,0.5-1.1,1.2-1.6,2.2C32.6,15.2,32.2,16.3,32,17.7
	 M94.3,15.5c8,0,12,4.7,12,14.1v26.8H95.7V29.4c0-3.6-1.5-5.4-4.5-5.4c-2,0-3.7,0.3-5.1,0.8c-1.4,0.5-2.9,1.4-4.5,2.7v28.9H71V16.2
	h8.5l2.1,4.3c3.7-2.7,6.6-4.2,8.8-4.6C91.5,15.6,92.8,15.5,94.3,15.5 M122.8,16.3c1.8-0.3,3.8-0.5,6.1-0.5c2.3,0,4,0,5.3,0.1
	c1.3,0.1,2.5,0.2,3.8,0.5c1.3,0.2,2.3,0.6,3.1,1c0.8,0.4,1.6,1,2.3,1.7c0.8,0.7,1.4,1.6,1.7,2.6c0.9,2.3,1.4,4.9,1.4,7.8
	c0,3-0.4,5.2-1.3,6.7c-1.7,2.9-5,4.3-9.9,4.3h-12.8c0,1.8,0.2,3.2,0.5,4.2c0.3,1.1,0.9,1.8,1.7,2.3c0.8,0.5,1.6,0.8,2.5,0.9
	c0.9,0.1,3.3,0.2,7.2,0.2c3.9,0,7.7-0.3,11.3-0.8v7.2c-2.3,0.9-4.6,1.4-6.8,1.6s-3.9,0.3-4.7,0.4c-1.1,0.1-2.1,0.1-3.2,0.1
	c-1.7,0-3.6,0.1-5.8,0.1c-5,0-8.4-1.6-10.4-4.7c-1.9-3.1-2.9-8.2-2.9-15.2c0-7,0.8-12,2.3-15C115.8,18.9,118.7,17,122.8,16.3
	 M136,30c0-2.5-0.3-4.1-1-4.9c-0.7-0.7-2.1-1.1-4.1-1.1c-2.1,0-3.5,0.1-4.3,0.2c-0.8,0.1-1.5,0.5-2.3,1.1c-0.7,0.6-1.2,1.5-1.4,2.6
	c-0.2,1.1-0.3,2.2-0.3,3.3V33h10.1C134.9,33,136,32,136,30 M150,24.3v-5.9l6.5-2.2l1.7-11.3h8.9v11.3h9v8.1h-9v16
	c0,2.7,0.3,4.6,0.8,5.7c0.6,1.1,1.4,1.8,2.6,2.3c3,1.1,4.7,1.6,5.1,1.6v6.5h-9.2c-6.6,0-9.8-4.8-9.8-14.4V24.3H150z M181.1,56.3
	V16.2h8.9l1.7,5.1c3.8-3.6,7.6-5.4,11.5-5.4c2.2,0,3.7,0.2,4.5,0.5v10.2c-1.4-0.2-3.3-0.2-5.7-0.2c-2.4,0-4.4,0.3-6,0.9
	c-1.6,0.6-3,1.8-4.2,3.5v25.6H181.1z M213,18.1c4.6-1.8,6.7-2.7,14.4-2.7c4.6,0,8.2,1,10.7,2.9c2.5,1.9,3.7,5.3,3.7,10v28h-8.4
	l-2.2-4.4c-0.2,0.4-0.8,0.9-1.9,1.6c-1.1,0.7-2.6,1.5-4.5,2.2c-1.9,0.7-3.8,1.1-5.5,1.1c-3.7,0-6.6-1.1-8.6-3.2c-2-2.1-3-4.6-3-7.5
	v-3.8c0-3.2,1-5.9,2.9-7.9c1.9-2.1,4.9-3.1,8.9-3.1c4,0,7,0,8.9,0s2.9,0,2.9-0.1v-2.6c0-2-0.4-3.3-1.3-4c-0.9-0.6-2.6-0.9-5.1-0.9
	s-3.8,0.3-11.8,0.8L213,18.1L213,18.1z M218.3,44.6c0,1.5,0.3,2.5,1,3c0.7,0.5,1.6,0.7,2.9,0.7c1.3,0,2.7-0.3,4.2-0.8
	c1.5-0.5,2.7-1,3.6-1.6l1.4-0.8v-7.3l-9.8,0.8c-2.2,0.2-3.3,1.6-3.3,4.1L218.3,44.6L218.3,44.6L218.3,44.6z M247.9,18.1h10.6v38.2
	h-10.6V18.1z M265.3,42.1V0.6h10.6v39.8c0,2.7,0.3,4.5,0.8,5.6c0.6,1.1,1.4,1.8,2.6,2.3c3,1.1,4.7,1.6,5.1,1.6v6.5h-8.8
	c-3.4,0-6-1.1-7.8-3.3C266.2,50.9,265.3,47.2,265.3,42.1 M247.9,5h10.6v8.8h-10.6V5z"/>
<linearGradient id="SVGID_1_" gradientUnits="userSpaceOnUse" x1="0.543" y1="566.9311" x2="304.458" y2="566.9311" gradientTransform="matrix(1 0 0 1 0 -497.2756)">
	<stop  offset="0" style="stop-color:#3DB3CE;stop-opacity:0"/>
	<stop  offset="0.25" style="stop-color:#3DB3CE"/>
	<stop  offset="0.75" style="stop-color:#3DB3CE"/>
	<stop  offset="1" style="stop-color:#3DB3CE;stop-opacity:0"/>
</linearGradient>
<path class="st1" d="M0.5,67.9h303.9v3.5H0.5V67.9z"/>
<path class="st0" d="M25,84.1h4.1v12.8h1.9V84.1h4.3v-1.9H25V84.1z M46.6,88.8h-6.3v-6.6h-1.9v14.7h1.9v-6.1h6.3v6.1h1.9V82.2h-1.9
	V88.8z M54.9,82.2c-0.7,0-1.3,0.2-1.8,0.7c-0.5,0.4-0.8,1.2-0.8,2.1v9.3c0,1.8,0.9,2.7,2.6,2.7l6.5-0.3V95h-6.2c-0.2,0-0.4,0-0.5,0
	c0,0-0.1,0-0.3-0.2c-0.1-0.1-0.1-0.3-0.1-0.5v-3.6l6.4-0.2v-1.6l-6.4-0.2V85c0-0.3,0-0.4,0-0.5c0,0,0-0.1,0.2-0.2
	c0.1-0.1,0.3-0.1,0.6-0.1h6.4v-1.6L55,82.2L54.9,82.2C54.9,82.2,54.9,82.2,54.9,82.2z M75.7,82c-1.9,0-3.2,0.6-3.9,1.9
	c-0.7,1.2-1,3.1-1,5.6c0,5,1.7,7.5,5,7.5c1.6,0,3.2-0.1,4.8-0.4l0.2,0v-1.6l-5,0.1c-2.1,0-3-1.8-3-5.5c0-1.5,0.1-2.7,0.3-3.6
	c0.2-0.8,0.5-1.3,0.9-1.6c0.4-0.3,1-0.4,1.8-0.4c0.8,0,2.4,0.1,4.7,0.2l0.3,0v-1.6l-0.2,0C78.7,82.2,77.1,82,75.7,82z M86.1,94.8
	c-0.2-0.1-0.2-0.3-0.2-0.7v-12h-1.9v12c0,1.1,0.3,1.9,1,2.3c0.5,0.3,1.1,0.4,1.9,0.4H93v-1.9h-6.2C86.5,94.9,86.3,94.9,86.1,94.8z
	 M98.9,82.2c-0.7,0-1.3,0.2-1.8,0.7c-0.5,0.4-0.8,1.2-0.8,2.1v9.3c0,1.8,0.9,2.7,2.6,2.7l6.5-0.3V95h-6.2c-0.2,0-0.4,0-0.5,0
	c0,0-0.1,0-0.3-0.2c-0.1-0.1-0.1-0.3-0.1-0.5v-3.6l6.4-0.2v-1.6l-6.4-0.2V85c0-0.3,0-0.4,0-0.5c0,0,0-0.1,0.2-0.2
	c0.1-0.1,0.3-0.1,0.6-0.1h6.4v-1.6L99,82.2L98.9,82.2L98.9,82.2L98.9,82.2z M114.1,93.6l-4-11.4H108l5.2,14.7h1.8l5.4-14.7h-2.1
	L114.1,93.6z M125.1,82.2c-0.7,0-1.3,0.2-1.8,0.7c-0.5,0.4-0.8,1.2-0.8,2.1v9.3c0,1.8,0.9,2.7,2.6,2.7l6.5-0.3V95h-6.2
	c-0.2,0-0.4,0-0.5,0c0,0-0.1,0-0.3-0.2c-0.1-0.1-0.1-0.3-0.1-0.5v-3.6l6.4-0.2v-1.6l-6.4-0.2V85c0-0.3,0-0.4,0-0.5
	c0,0,0-0.1,0.2-0.2c0.1-0.1,0.3-0.1,0.6-0.1h6.4v-1.6l-6.4-0.3L125.1,82.2L125.1,82.2L125.1,82.2z M144.5,86.7c0-3-1.2-4.5-3.5-4.5
	h-6.3v14.7h1.9v-6.1l3.5,0.2l3,5.8h2.1l-3-5.9C143.7,90.6,144.5,89.1,144.5,86.7z M142.6,86.5c0,1-0.1,1.7-0.4,2.1
	c-0.1,0.3-0.6,0.4-1.2,0.4h-4.4v-4.9h4.4c0.5,0,0.8,0.2,1.1,0.5C142.4,84.9,142.6,85.6,142.6,86.5z M159,82c-1.9,0-3.2,0.6-3.9,1.9
	c-0.7,1.2-1,3.1-1,5.6c0,5,1.7,7.5,5,7.5c1.6,0,3.2-0.1,4.8-0.4l0.2,0v-1.6l-5,0.1c-2.1,0-3-1.8-3-5.5c0-1.5,0.1-2.7,0.3-3.6
	c0.2-0.8,0.5-1.3,0.9-1.6c0.4-0.3,1-0.4,1.8-0.4c0.8,0,2.4,0.1,4.7,0.2l0.3,0v-1.6l-0.2,0C162,82.2,160.4,82,159,82L159,82z
	 M175.8,82.9c-0.7-0.6-2-0.8-3.7-0.8c-1.2,0-2.2,0.1-3,0.4c-0.5,0.2-0.9,0.5-1.2,0.8c-0.3,0.3-0.6,0.8-0.8,1.3
	c-0.3,0.6-0.4,1.3-0.6,2.1c-0.1,0.9-0.2,1.9-0.2,2.9c0,1.1,0.1,2,0.2,2.8c0.1,0.8,0.3,1.5,0.5,2h0c0.2,0.5,0.5,1,0.8,1.3
	c0.3,0.4,0.7,0.6,1.2,0.8c0.5,0.2,0.9,0.3,1.4,0.3c0.5,0.1,1,0.1,1.7,0.1c0.7,0,1.3,0,1.9-0.1c0.6-0.1,1.1-0.3,1.6-0.6
	c0.5-0.3,0.9-0.7,1.2-1.3c0.3-0.5,0.5-1.2,0.7-2.1c0.2-0.9,0.2-2.1,0.2-3.6c0-1.5-0.2-2.9-0.5-4C177,84.2,176.5,83.5,175.8,82.9
	L175.8,82.9z M174.7,84.5c0.2,0.1,0.3,0.2,0.4,0.4c0.1,0.2,0.2,0.5,0.3,0.7c0.3,0.7,0.4,2,0.4,4c0,1.8-0.2,3.2-0.5,4
	c-0.2,0.4-0.4,0.7-0.7,0.9c-0.3,0.2-0.7,0.4-1,0.4c-0.4,0.1-1,0.1-1.7,0.1c-0.7,0-1.3-0.1-1.7-0.2c-0.4-0.1-0.8-0.3-1.1-0.7
	c-0.3-0.4-0.5-0.9-0.7-1.6c-0.1-0.8-0.2-1.6-0.2-2.5c0-0.9,0-1.7,0.1-2.2c0-0.5,0.1-1,0.1-1.3v0c0.1-0.4,0.1-0.7,0.3-1
	c0.1-0.3,0.2-0.5,0.3-0.7c0.1-0.2,0.2-0.3,0.4-0.4c0.2-0.1,0.3-0.2,0.5-0.3c0.1,0,0.3-0.1,0.6-0.1c0.3,0,0.5-0.1,0.7-0.1
	c0.2,0,0.5,0,0.8,0s0.6,0,0.8,0c0.2,0,0.4,0,0.7,0.1c0.3,0,0.5,0.1,0.6,0.1C174.4,84.3,174.5,84.4,174.7,84.5L174.7,84.5z
	 M190.3,93.1l-7.2-10.9h-1.9v14.7h2V85.9l7.2,10.9h1.8V82.2h-1.9L190.3,93.1z M205,93.1l-7.2-10.9H196v14.7h2V85.9l7.2,10.9h1.8
	V82.2H205L205,93.1z M213.3,82.2c-0.7,0-1.3,0.2-1.8,0.7c-0.5,0.4-0.8,1.2-0.8,2.1v9.3c0,1.8,0.9,2.7,2.6,2.7l6.5-0.3V95h-6.2
	c-0.2,0-0.4,0-0.5,0c0,0-0.1,0-0.3-0.2c-0.1-0.1-0.1-0.3-0.1-0.5v-3.6l6.4-0.2v-1.6l-6.4-0.2V85c0-0.2,0-0.4,0-0.5
	c0-0.1,0.1-0.1,0.2-0.2c0.1-0.1,0.3-0.1,0.6-0.1h6.4v-1.6l-6.4-0.3L213.3,82.2L213.3,82.2z M227.7,82c-1.9,0-3.2,0.6-3.9,1.9
	c-0.7,1.2-1,3.1-1,5.6c0,5,1.7,7.5,5,7.5c1.6,0,3.2-0.1,4.8-0.4l0.2,0v-1.6l-5,0.1c-2.1,0-3-1.8-3-5.5c0-1.6,0.1-2.7,0.3-3.6
	c0.2-0.8,0.5-1.3,0.9-1.6c0.4-0.3,1-0.4,1.8-0.4c0.8,0,2.4,0.1,4.7,0.2l0.3,0v-1.6l-0.2,0C230.8,82.2,229.2,82,227.7,82z
	 M235.3,84.1h4.1v12.8h1.9V84.1h4.3v-1.9h-10.4V84.1z M248.7,82.2h1.9v14.7h-1.9V82.2z M263.6,82.9c-0.7-0.6-2-0.8-3.7-0.8
	c-1.2,0-2.2,0.1-3,0.4c-0.5,0.2-0.9,0.4-1.2,0.8c-0.3,0.3-0.6,0.8-0.8,1.3c-0.3,0.5-0.4,1.2-0.6,2.1c-0.1,0.8-0.2,1.8-0.2,2.9
	c0,1.1,0.1,2,0.2,2.8c0.1,0.8,0.3,1.5,0.5,2c0.2,0.6,0.5,1,0.8,1.3c0.3,0.3,0.7,0.6,1.2,0.8c0.5,0.2,0.9,0.3,1.4,0.3
	c0.5,0.1,1,0.1,1.7,0.1c0.7,0,1.3,0,1.9-0.1c0.6-0.1,1.1-0.3,1.6-0.6c0.5-0.3,0.9-0.7,1.2-1.3c0.3-0.5,0.5-1.3,0.7-2.1
	c0.2-0.9,0.2-2.1,0.2-3.6c0-1.5-0.2-2.9-0.5-4C264.8,84.2,264.3,83.5,263.6,82.9L263.6,82.9z M258.4,84.1c0.3,0,0.5-0.1,0.7-0.1
	c0.2,0,0.5,0,0.8,0c0.4,0,0.6,0,0.8,0c0.2,0,0.4,0,0.7,0.1c0.3,0,0.5,0.1,0.6,0.1c0.1,0.1,0.3,0.2,0.5,0.3c0.2,0.1,0.3,0.2,0.4,0.4
	c0.1,0.2,0.2,0.4,0.3,0.7c0.3,0.7,0.4,2,0.4,4c0,1.8-0.2,3.2-0.5,4c-0.2,0.4-0.4,0.7-0.7,0.9c-0.3,0.2-0.7,0.4-1,0.4
	c-0.4,0.1-1,0.1-1.7,0.1c-0.7,0-1.3-0.1-1.7-0.2c-0.4-0.1-0.8-0.3-1.1-0.7c-0.3-0.4-0.5-0.9-0.7-1.6c-0.1-0.8-0.2-1.6-0.2-2.5
	c0-0.9,0-1.7,0.1-2.2c0-0.5,0.1-1,0.1-1.3c0-0.3,0.1-0.6,0.3-1c0.1-0.3,0.2-0.5,0.3-0.7c0.1-0.2,0.2-0.3,0.4-0.4
	c0.2-0.1,0.4-0.2,0.5-0.3C257.9,84.2,258,84.1,258.4,84.1L258.4,84.1z M278.1,82.2v10.9l-7.2-10.9H269v14.7h2V85.9l7.2,10.9h1.8
	V82.2L278.1,82.2z"/>
</svg>
