<?xml version="1.0" encoding="UTF-8" standalone="no"?>
<svg xmlns="http://www.w3.org/2000/svg" version="1.1" viewBox="0 0 368.03 43.12">
  <title>SAP SuccessFactors</title>
  <path d="m 346.72,43.13 -7.3,-7.4 c -7.5,-7.4 -13.9,-13.8 -13.9,-21.8 0,-8 5.7,-13.9 13.6,-13.9 a 12.9,12.9 0 0 1 7.7,2.5 12.9,12.9 0 0 1 7.7,-2.5 c 7.9,0 13.6,5.9 13.6,13.9 0,8 -6.5,14.4 -14,21.8 z m -7.6,-38.4 c -5.3,0 -8.9,3.7 -8.9,9.2 0,6 5.8,11.8 12.5,18.5 l 4,4 4,-4 c 6.7,-6.7 12.5,-12.5 12.5,-18.5 0,-5.5 -3.6,-9.2 -8.9,-9.2 a 8.3,8.3 0 0 0 -6,2.6 l -1.7,1.8 -1.7,-1.8 a 8.3,8.3 0 0 0 -6,-2.6" style="fill:#f0ab00" />
  <path d="m 0.02,28.03 4,-2.4 a 7.1,7.1 0 0 0 6.4,4.1 c 2.4,0 4.2,-0.9 4.2,-2.8 0,-1.9 -1.7,-2.6 -4.8,-3.5 -4.3,-1.2 -8.7,-2.3 -8.7,-7.3 0,-4.5 3.5,-7.1 8.6,-7.1 a 10.8,10.8 0 0 1 9.5,4.9 l -3.6,2.8 a 7.1,7.1 0 0 0 -6,-3.3 c -2.2,0 -3.5,1 -3.5,2.4 0,1.9 1.8,2.6 4.9,3.5 4.2,1.1 8.7,2.5 8.7,7.4 0,3.8 -2.9,7.3 -9.6,7.3 -5.1,-0.1 -8.3,-2.5 -10.1,-6 z m 20.7,5.4 8.5,-24 5,0 8.5,24 -5.4,0 -1.8,-5.3 -8.1,0 -1.9,5.3 z m 8,-9.1 5.6,0 -2.8,-8.1 -0.1,0 z m 16.6,9.1 0,-23.9 8.7,0 c 5.1,0 9.8,1.4 9.8,7.7 0,6.3 -5,7.8 -9.8,7.8 l -3.5,0 0,8.5 z m 5.2,-12.5 3.6,0 c 3.3,0 4.5,-1.3 4.5,-3.5 0,-2.2 -1.2,-3.5 -4.5,-3.5 l -3.6,0 z m 24.2,7.1 4,-2.4 a 7.1,7.1 0 0 0 6.4,4.1 c 2.4,0 4.2,-0.9 4.2,-2.8 0,-1.9 -1.7,-2.6 -4.8,-3.5 -4.3,-1.2 -8.7,-2.3 -8.7,-7.3 0,-4.5 3.5,-7.1 8.6,-7.1 a 10.8,10.8 0 0 1 9.5,4.9 l -3.6,2.8 a 7.1,7.1 0 0 0 -5.9,-3.4 c -2.2,0 -3.5,1 -3.5,2.4 0,1.9 1.8,2.6 4.9,3.5 4.2,1.1 8.7,2.5 8.7,7.4 0,3.8 -2.9,7.3 -9.6,7.3 -5.2,0 -8.4,-2.4 -10.2,-5.9 z m 22.3,0.8 0,-12.6 5.2,0 0,11 c 0,1.6 0.6,2.4 2,2.4 a 5.9,5.9 0 0 0 3.8,-1.7 l 0,-11.7 5.2,0 0,17.3 -5.2,0 0,-2.7 a 7.4,7.4 0 0 1 -5.9,3 c -3,0 -5.1,-1.5 -5.1,-5 z m 19,-3.9 c 0,-6.9 4.9,-9 8.7,-9 4.7,0 6.5,2.5 7.5,5.3 l -4.4,1.4 c -0.7,-2.2 -1.7,-2.9 -3.2,-2.9 -2.1,0 -3.4,1.8 -3.4,5.2 0,3.1 1,5.3 3.4,5.3 1.4,0 2.6,-0.7 3.4,-3.1 l 4.3,1.5 a 7.8,7.8 0 0 1 -7.8,5.2 c -4.1,0 -8.6,-2.3 -8.6,-8.9 z m 17.9,0 c 0,-6.9 4.9,-9 8.7,-9 4.7,0 6.5,2.5 7.5,5.3 l -4.3,1.4 c -0.7,-2.2 -1.7,-2.9 -3.2,-2.9 -2.1,0 -3.4,1.8 -3.4,5.2 0,3.1 1,5.3 3.4,5.3 1.4,0 2.6,-0.7 3.4,-3.1 l 4.3,1.5 a 7.8,7.8 0 0 1 -7.8,5.2 c -4.2,0 -8.6,-2.2 -8.6,-8.9 z m 17.4,0 c 0,-6.7 5.1,-9 8.7,-9 3.6,0 7.9,1.8 7.9,9.6 l 0,0.8 -11.4,0 c 0.3,2.8 1.8,3.9 4,3.9 a 7.9,7.9 0 0 0 5.1,-2.1 l 2,3.1 a 11.1,11.1 0 0 1 -7.5,2.6 c -4.5,0 -8.8,-2.3 -8.8,-8.9 z m 11.9,-1.7 c -0.3,-2.4 -1.4,-3.6 -3.3,-3.6 -1.6,0 -3,1.1 -3.4,3.6 z m 6.1,8 2.1,-2.9 a 9.5,9.5 0 0 0 6,2.2 c 1.6,0 2.8,-0.6 2.8,-1.7 0,-1.1 -0.9,-1.6 -3.3,-2.1 -3.3,-0.6 -6.8,-1.4 -6.8,-5.4 0,-3.5 2.8,-5.5 6.7,-5.5 a 11.1,11.1 0 0 1 7.6,2.4 l -2,2.9 a 9.2,9.2 0 0 0 -5.1,-1.9 c -1.5,0 -2.3,0.6 -2.3,1.5 0,0.9 0.9,1.4 3.1,1.8 3.4,0.6 7,1.4 7,5.3 0,4.2 -3.6,5.8 -7.6,5.8 a 11.9,11.9 0 0 1 -8.2,-2.4 z m 17.3,0 2,-3 a 9.5,9.5 0 0 0 6,2.2 c 1.6,0 2.8,-0.6 2.8,-1.7 0,-1.1 -0.9,-1.6 -3.3,-2.1 -3.3,-0.6 -6.8,-1.4 -6.8,-5.4 0,-3.5 2.8,-5.5 6.7,-5.5 a 11.1,11.1 0 0 1 7.6,2.4 l -2,2.9 a 9.2,9.2 0 0 0 -5.1,-1.9 c -1.5,0 -2.3,0.6 -2.3,1.5 0,0.9 0.9,1.4 3.1,1.8 3.4,0.6 7,1.4 7,5.3 0,4.2 -3.6,5.8 -7.6,5.8 a 11.9,11.9 0 0 1 -8.2,-2.3 z m 18.8,2.3 0,-24 15.8,0 0,4.4 -10.6,0 0,5.8 7.5,0 0,4.2 -7.5,0 0,9.5 z m 14.6,-4.4 c 0,-4 3.4,-6.2 10.9,-6.8 l 0,-0.4 c 0,-1.3 -0.7,-2.1 -2.3,-2.1 a 9.2,9.2 0 0 0 -5.7,2.1 l -2.2,-3 a 12.1,12.1 0 0 1 8.6,-3.1 c 4.7,0 6.7,2.3 6.7,6.8 l 0,6.6 a 11.8,11.8 0 0 0 0.5,4.2 l -5.2,0 a 8.2,8.2 0 0 1 -0.4,-2.5 7.6,7.6 0 0 1 -6,2.8 4.6,4.6 0 0 1 -5,-4.6 z m 10.9,-0.7 0,-3.2 c -4.1,0.4 -5.8,1.4 -5.8,3 0,1.1 0.8,1.6 1.9,1.6 a 5.3,5.3 0 0 0 3.8,-1.5 z m 7.9,-3.5 c 0,-6.9 4.9,-9 8.7,-9 4.7,0 6.5,2.5 7.5,5.3 l -4.4,1.4 c -0.7,-2.2 -1.7,-2.9 -3.2,-2.9 -2.1,0 -3.4,1.8 -3.4,5.2 0,3.1 1,5.3 3.4,5.3 1.4,0 2.6,-0.7 3.4,-3.1 l 4.3,1.5 a 7.8,7.8 0 0 1 -7.8,5.2 c -4.1,0 -8.5,-2.3 -8.5,-8.9 z m 20.3,3.8 0,-8.7 -2.9,0 0,-3.8 2.9,0 0,-5.9 5.2,0 0,5.9 4.3,0 0,3.8 -4.4,0 0,7.5 c 0,1.8 0.5,2.4 2.4,2.4 a 6.4,6.4 0 0 0 1.7,-0.2 l 0,3.7 a 25.1,25.1 0 0 1 -3.4,0.3 c -5.2,0 -5.9,-1.9 -5.9,-5.1 z m 11.1,-3.8 c 0,-6.8 4.6,-9 8.8,-9 4.2,0 8.8,2.2 8.8,9 0,6.8 -4.6,8.9 -8.8,8.9 -4.2,0 -8.8,-2.3 -8.8,-8.9 z m 12.4,0 c 0,-2.9 -1,-5.2 -3.6,-5.2 -2.6,0 -3.6,2.1 -3.6,5.2 0,2.9 1,5.3 3.6,5.3 2.4,0 3.6,-2.2 3.6,-5.3 z m 8.2,8.6 0,-17.3 5.2,0 0,2.9 0,0 a 6.5,6.5 0 0 1 5.8,-3.2 l 0.2,0 -0.1,4.6 c -0.2,0 -1,-0.1 -1.4,-0.1 a 5.8,5.8 0 0 0 -4.6,2.4 l 0,10.7 z m 11.9,-2.3 2.1,-2.9 a 9.6,9.6 0 0 0 6,2.2 c 1.6,0 2.8,-0.6 2.8,-1.7 0,-1.1 -1,-1.6 -3.4,-2.1 -3.3,-0.6 -6.8,-1.4 -6.8,-5.4 0,-3.5 2.8,-5.5 6.7,-5.5 a 11.1,11.1 0 0 1 7.6,2.4 l -2,2.9 a 9.2,9.2 0 0 0 -5.1,-1.7 c -1.5,0 -2.3,0.6 -2.3,1.5 0,0.9 0.9,1.4 3.1,1.8 3.4,0.6 7,1.4 7,5.3 0,4.2 -3.6,5.8 -7.6,5.8 a 11.9,11.9 0 0 1 -8.1,-2.6 z" style="fill:#ffffff" />
</svg>
