<?xml version="1.0" encoding="utf-8"?>
<!-- Generator: Adobe Illustrator 23.0.3, SVG Export Plug-In . SVG Version: 6.00 Build 0)  -->
<svg version="1.1" xmlns="http://www.w3.org/2000/svg" xmlns:xlink="http://www.w3.org/1999/xlink" x="0px" y="0px"
	 viewBox="0 0 841.89 595.28" style="enable-background:new 0 0 841.89 595.28;" xml:space="preserve">
<style type="text/css">
	.st0{fill:#FFFFFF;stroke:#000000;stroke-width:3;stroke-miterlimit:10;}
	.st1{fill:#432918;}
	.st2{display:none;}
	.st3{display:inline;}
	.st4{fill:#50AE32;}
	.st5{font-family:'ZwoOT-SemiBd';}
	.st6{font-size:82.4229px;}
	.st7{fill:#CED847;}
	.st8{fill:#E48616;}
	.st9{fill:#912B15;}
</style>
<g id="Layer_1">
	<rect x="100.45" y="199.45" class="st0" width="643.87" height="244.85"/>
	<path class="st1" d="M100.45,251.47c0,0-72.22-20.13-74.4,58.53c-1.14,41.32,53.59,81.72,84.16,60.91
		c47.43-32.29,11.36-104.48-9.45-101.88L100.45,251.47z"/>
	<path class="st1" d="M745.32,251.47c0,0,72.22-20.13,74.4,58.53c1.14,41.32-53.59,81.72-84.16,60.91
		c-47.43-32.29-11.36-104.48,9.45-101.88L745.32,251.47z"/>
</g>
<g id="veryhappy" class="st2">
	<text transform="matrix(1 0 0 1 163.9538 297.0146)" class="st3"><tspan x="0" y="0" class="st4 st5 st6">Ik ben heel blij</tspan><tspan x="91.28" y="98.91" class="st4 st5 st6">met jullie</tspan></text>
</g>
<g id="veryhappy-en">
	<text transform="matrix(1 0 0 1 155.9592 297.0146)"><tspan x="0" y="0" class="st4 st5 st6">I’m very happy</tspan><tspan x="109.41" y="98.91" class="st4 st5 st6">with you</tspan></text>
</g>
<g id="happy" class="st2">
	<text transform="matrix(1 0 0 1 248.6423 297.0146)" class="st3"><tspan x="0" y="0" class="st7 st5 st6">Ik ben blij</tspan><tspan x="6.59" y="98.91" class="st7 st5 st6">met jullie</tspan></text>
</g>
<g id="happy-en" class="st2">
	<text transform="matrix(1 0 0 1 244.2326 297.0146)" class="st3"><tspan x="0" y="0" class="st7 st5 st6">I’m happy</tspan><tspan x="21.14" y="98.91" class="st7 st5 st6">with you</tspan></text>
</g>
<g id="nothappy" class="st2">
	<text transform="matrix(1 0 0 1 181.7981 297.0146)" class="st3"><tspan x="0" y="0" class="st8 st5 st6">Ik ben niet zo</tspan><tspan x="8.74" y="98.91" class="st8 st5 st6">blij met jullie</tspan></text>
</g>
<g id="nothappy-en" class="st2">
	<text transform="matrix(1 0 0 1 123.8571 297.0146)" class="st3"><tspan x="0" y="0" class="st8 st5 st6">I’m not so happy</tspan><tspan x="141.52" y="98.91" class="st8 st5 st6">with you</tspan></text>
</g>
<g id="angry" class="st2">
	<text transform="matrix(1 0 0 1 233.2287 297.0146)" class="st3"><tspan x="0" y="0" class="st9 st5 st6">Ik ben niet</tspan><tspan x="-42.69" y="98.91" class="st9 st5 st6">blij met jullie</tspan></text>
</g>
<g id="angry-en" class="st2">
	<text transform="matrix(1 0 0 1 173.4743 297.0146)" class="st3"><tspan x="0" y="0" class="st9 st5 st6">I’m not happy</tspan><tspan x="91.9" y="98.91" class="st9 st5 st6">with you</tspan></text>
</g>
</svg>
